<svg width="1440" height="1024" viewBox="0 0 1440 1024" fill="none" xmlns="http://www.w3.org/2000/svg">
<g clip-path="url(#clip0_19_143)">
<rect width="1440" height="1024" fill="#152F35"/>
<g filter="url(#filter0_f_19_143)">
<path fill-rule="evenodd" clip-rule="evenodd" d="M563.93 -26.7371C608.273 6.75618 584.807 83.5251 583.847 142.886C582.946 198.678 593.707 258.469 558.486 310.139C523.637 361.262 458.193 383.628 401.762 410.003C357.203 430.831 311.648 441.511 265.392 447.131C223.793 452.185 180.157 457.403 146.401 441.026C114.266 425.435 110.844 382.794 84.9861 359.605C53.8417 331.675 0.788896 328.129 -19.9786 291.818C-44.0209 249.782 -77.958 187.697 -38.6237 143.483C7.12496 92.0588 100.603 146.626 151.208 99.3942C210.246 44.2927 161.847 -71.863 232.534 -109.597C292.402 -141.556 313.475 -32.2859 370.958 -17.9133C430.802 -2.9501 517.425 -61.8636 563.93 -26.7371Z" fill="#4F809E"/>
</g>
<g filter="url(#filter1_f_19_143)">
<path fill-rule="evenodd" clip-rule="evenodd" d="M1487.83 227.631C1520.23 263.326 1528.95 310.609 1544.89 354.695C1560.43 397.673 1587.51 440.994 1580.35 483.524C1573.21 525.922 1532.66 549.479 1506.63 582.078C1479.25 616.365 1465.96 667.151 1422.9 680.69C1379.8 694.242 1331.5 662.536 1284.76 651.839C1236.53 640.802 1184.7 645.594 1142.89 616.612C1099.44 586.496 1064.62 539.979 1052.24 490.654C1040.23 442.821 1069.51 400.779 1077.05 354.297C1084.49 308.41 1068.07 253.358 1096.42 218.312C1124.85 183.17 1179.46 183.237 1224.78 171.693C1269.29 160.355 1312.8 141.069 1360.13 151.135C1408.2 161.357 1453.81 190.141 1487.83 227.631Z" fill="#4F809E"/>
</g>
<g filter="url(#filter2_f_19_143)">
<path fill-rule="evenodd" clip-rule="evenodd" d="M-12.8792 716.025C65.6556 714.261 122.998 804.717 169.965 883.347C209.438 949.432 221.969 1029.28 223.463 1111.7C225.004 1196.74 226.473 1290.34 178.433 1350.63C130.328 1411.01 55.0588 1415.76 -12.8792 1408.32C-74.323 1401.59 -126.878 1362.77 -173.337 1312.1C-224.34 1256.47 -281.659 1196.17 -284.856 1111.7C-288.139 1024.98 -234.544 957.296 -189.261 891.418C-138.371 817.383 -90.994 717.78 -12.8792 716.025Z" fill="#1E1E1E"/>
</g>
<g filter="url(#filter3_f_19_143)">
<path fill-rule="evenodd" clip-rule="evenodd" d="M1120.12 -712.975C1198.66 -714.739 1256 -624.283 1302.96 -545.653C1342.44 -479.568 1354.97 -399.724 1356.46 -317.298C1358 -232.262 1359.47 -138.659 1311.43 -78.3668C1263.33 -17.9922 1188.06 -13.2361 1120.12 -20.6783C1058.68 -27.4092 1006.12 -66.2328 959.663 -116.901C908.66 -172.525 851.341 -232.826 848.144 -317.298C844.861 -404.025 898.456 -471.704 943.739 -537.582C994.629 -611.617 1042.01 -711.22 1120.12 -712.975Z" fill="#1E1E1E"/>
</g>
<g filter="url(#filter4_f_19_143)">
<path fill-rule="evenodd" clip-rule="evenodd" d="M884.263 1113.17C786.98 1074.5 723.78 959.492 743.49 833.135C761.418 718.201 878.855 647.285 969.097 569.319C1036.65 510.958 1105.71 464.162 1182.64 453.727C1278 440.792 1382.93 431.374 1433.94 506.267C1491.18 590.307 1502.24 723.54 1443.21 836.295C1388.47 940.834 1270.85 955.694 1173.33 1004C1073.71 1053.35 971.534 1147.86 884.263 1113.17Z" fill="#F9C165"/>
</g>
<g filter="url(#filter5_f_19_143)">
<path fill-rule="evenodd" clip-rule="evenodd" d="M661.288 129.025C700.48 164.433 761.703 185.503 772.294 236.579C782.874 287.603 743.713 333.664 712.005 373.616C686.592 405.636 645.08 415.581 611.561 439.102C573.329 465.931 549.06 515.023 502.118 520.899C451.55 527.23 392.823 510.386 359.376 470.67C326.692 431.86 344.185 375.393 337.8 325.782C332.318 283.192 317.214 242.758 324.654 200.898C333.71 149.945 344.444 94.7972 384.55 62.7483C426.954 28.864 487.094 14.8636 541.234 27.8299C593.011 40.23 621.477 93.0585 661.288 129.025Z" fill="#4F809E"/>
</g>
</g>
<defs>
<filter id="filter0_f_19_143" x="-656.616" y="-715.424" width="1847.52" height="1767.54" filterUnits="userSpaceOnUse" color-interpolation-filters="sRGB">
<feFlood flood-opacity="0" result="BackgroundImageFix"/>
<feBlend mode="normal" in="SourceGraphic" in2="BackgroundImageFix" result="shape"/>
<feGaussianBlur stdDeviation="300" result="effect1_foregroundBlur_19_143"/>
</filter>
<filter id="filter1_f_19_143" x="649.385" y="-251.682" width="1332.14" height="1335.69" filterUnits="userSpaceOnUse" color-interpolation-filters="sRGB">
<feFlood flood-opacity="0" result="BackgroundImageFix"/>
<feBlend mode="normal" in="SourceGraphic" in2="BackgroundImageFix" result="shape"/>
<feGaussianBlur stdDeviation="200" result="effect1_foregroundBlur_19_143"/>
</filter>
<filter id="filter2_f_19_143" x="-685" y="316" width="1309" height="1495" filterUnits="userSpaceOnUse" color-interpolation-filters="sRGB">
<feFlood flood-opacity="0" result="BackgroundImageFix"/>
<feBlend mode="normal" in="SourceGraphic" in2="BackgroundImageFix" result="shape"/>
<feGaussianBlur stdDeviation="200" result="effect1_foregroundBlur_19_143"/>
</filter>
<filter id="filter3_f_19_143" x="448" y="-1113" width="1309" height="1495" filterUnits="userSpaceOnUse" color-interpolation-filters="sRGB">
<feFlood flood-opacity="0" result="BackgroundImageFix"/>
<feBlend mode="normal" in="SourceGraphic" in2="BackgroundImageFix" result="shape"/>
<feGaussianBlur stdDeviation="200" result="effect1_foregroundBlur_19_143"/>
</filter>
<filter id="filter4_f_19_143" x="139.889" y="-155.106" width="1942.62" height="1875.75" filterUnits="userSpaceOnUse" color-interpolation-filters="sRGB">
<feFlood flood-opacity="0" result="BackgroundImageFix"/>
<feBlend mode="normal" in="SourceGraphic" in2="BackgroundImageFix" result="shape"/>
<feGaussianBlur stdDeviation="300" result="effect1_foregroundBlur_19_143"/>
</filter>
<filter id="filter5_f_19_143" x="-278.366" y="-577.949" width="1653.42" height="1701.15" filterUnits="userSpaceOnUse" color-interpolation-filters="sRGB">
<feFlood flood-opacity="0" result="BackgroundImageFix"/>
<feBlend mode="normal" in="SourceGraphic" in2="BackgroundImageFix" result="shape"/>
<feGaussianBlur stdDeviation="300.5" result="effect1_foregroundBlur_19_143"/>
</filter>
<clipPath id="clip0_19_143">
<rect width="1440" height="1024" fill="white"/>
</clipPath>
</defs>
</svg>
