<svg width="1097" height="158" viewBox="0 0 1097 158" fill="none" xmlns="http://www.w3.org/2000/svg">
<path d="M4.5 4.5H1092.5V148C1092.5 151.038 1090.04 153.5 1087 153.5H9.99998C6.96243 153.5 4.5 151.038 4.5 148V4.5Z" fill="black" fill-opacity="0.2" stroke="#152F35" stroke-width="9"/>
<circle cx="111" cy="77" r="38.5" fill="#D9D9D9" stroke="black" stroke-width="3"/>
<circle cx="220" cy="77" r="38.5" fill="#D9D9D9" stroke="black" stroke-width="3"/>
<circle cx="329" cy="77" r="38.5" fill="#D9D9D9" stroke="black" stroke-width="3"/>
<circle cx="438" cy="77" r="38.5" fill="#D9D9D9" stroke="black" stroke-width="3"/>
<circle cx="547" cy="77" r="38.5" fill="#D9D9D9" stroke="black" stroke-width="3"/>
<circle cx="656" cy="77" r="38.5" fill="#D9D9D9" stroke="black" stroke-width="3"/>
<circle cx="765" cy="77" r="38.5" fill="#D9D9D9" stroke="black" stroke-width="3"/>
<circle cx="874" cy="77" r="38.5" fill="#D9D9D9" stroke="black" stroke-width="3"/>
<circle cx="983" cy="77" r="38.5" fill="#D9D9D9" stroke="black" stroke-width="3"/>
<path d="M132.001 88.4254C125.351 91.2254 118.089 92.6254 111.526 92.6254C101.901 92.7129 92.4515 90.0004 84.7515 85.4504C84.139 85.1004 83.5265 85.7129 84.139 86.3254C91.139 92.7129 100.501 96.5629 110.914 96.5629C118.351 96.5629 126.926 94.2004 132.876 89.9129C133.926 89.1254 133.051 87.9879 132.001 88.4254Z" fill="black"/>
<path d="M137.864 85.1004C137.252 84.2254 131.739 83.6129 128.239 85.9754C127.714 86.3254 127.889 86.8504 128.327 86.8504C130.164 86.5879 134.452 86.1504 135.239 87.1129C136.027 88.0754 134.364 92.0129 133.752 93.8504C133.489 94.3754 134.014 94.5504 134.452 94.2004C137.777 91.4879 138.652 85.8879 137.864 85.1004Z" fill="black"/>
<path d="M113.715 66.1127C110.915 66.3752 107.065 66.6377 104.44 67.8627C101.377 69.1752 99.1021 71.8877 99.1021 75.9127C99.1021 81.0752 102.34 83.7002 106.54 83.7002C109.952 83.7002 111.965 82.8252 114.677 80.1127C115.552 81.3377 115.902 82.1252 117.477 83.4377C117.827 83.5252 118.352 83.5252 118.702 83.3502C119.665 82.4752 121.502 80.9002 122.552 80.1127C122.902 79.7627 122.902 79.2377 122.552 78.8877C121.677 77.6627 120.715 76.7002 120.715 74.3377V66.5502C120.715 63.3127 120.977 60.2502 118.527 58.0627C116.69 56.2252 113.452 55.6127 111.09 55.6127C106.365 55.6127 101.202 57.3627 100.152 63.1377C100.065 63.7502 100.502 64.1002 100.765 64.1002L105.49 64.6252C106.015 64.6252 106.19 64.1002 106.365 63.7502C106.715 61.7377 108.377 60.7752 110.302 60.7752C111.265 60.7752 112.49 61.1252 113.102 62.0002C113.715 62.9627 113.715 64.4502 113.715 65.5877V66.1127ZM112.752 76.3502C112.052 77.6627 110.74 78.5377 109.427 78.5377C107.59 78.5377 106.365 77.0502 106.365 74.9502C106.365 70.7502 110.215 70.0502 113.627 70.0502V71.1877C113.715 72.9377 113.715 74.6002 112.752 76.3502Z" fill="black"/>
<path d="M458.675 67.5031C458.36 67.7435 452.805 70.8259 452.805 77.6797C452.805 85.6074 459.874 88.412 460.086 88.4814C460.053 88.6524 458.963 92.3224 456.358 96.0618C454.036 99.3525 451.611 102.638 447.922 102.638C444.232 102.638 443.283 100.528 439.024 100.528C434.873 100.528 433.398 102.707 430.023 102.707C426.648 102.707 424.293 99.6624 421.586 95.923C418.45 91.5318 415.917 84.7099 415.917 78.2354C415.917 67.8504 422.774 62.3427 429.524 62.3427C433.11 62.3427 436.099 64.6611 438.351 64.6611C440.494 64.6611 443.836 62.2038 447.916 62.2038C449.463 62.2038 455.018 62.3427 458.675 67.5031ZM445.979 57.8073C447.667 55.836 448.86 53.1009 448.86 50.3657C448.86 49.9865 448.828 49.6018 448.757 49.292C446.012 49.3935 442.746 51.0923 440.776 53.3413C439.23 55.0721 437.787 57.8073 437.787 60.5798C437.787 60.9966 437.857 61.4131 437.89 61.5467C438.064 61.5788 438.346 61.6161 438.628 61.6161C441.091 61.6161 444.189 59.9921 445.979 57.8073Z" fill="black"/>
<path d="M220 49.5748C205.125 49.5748 192.875 61.6498 192.875 76.6998C192.875 88.5998 200.662 98.7498 211.512 102.425C212.912 102.687 213.35 101.812 213.35 101.2C213.35 100.587 213.35 98.8373 213.262 96.4748C205.737 98.2248 204.162 92.7998 204.162 92.7998C202.937 89.7373 201.1 88.8623 201.1 88.8623C198.65 87.1123 201.188 87.1123 201.188 87.1123C203.9 87.1998 205.388 89.9123 205.388 89.9123C207.75 94.1123 211.775 92.8873 213.262 92.0998C213.525 90.3498 214.225 89.1248 215.012 88.4248C209.062 87.8123 202.675 85.4498 202.675 75.1248C202.675 72.1498 203.812 69.7873 205.475 67.9498C205.212 67.3373 204.25 64.5373 205.737 60.7748C205.737 60.7748 208.1 60.0748 213.262 63.5748C215.45 62.9623 217.725 62.6123 220.087 62.6123C222.45 62.6123 224.813 62.8748 226.913 63.5748C232.075 60.1623 234.35 60.7748 234.35 60.7748C235.838 64.4498 234.963 67.3373 234.613 67.9498C236.363 69.7873 237.413 72.2373 237.413 75.1248C237.413 85.4498 231.025 87.8123 225.075 88.4248C226.037 89.2998 226.913 91.0498 226.913 93.4998C226.913 97.1748 226.825 100.062 226.825 100.937C226.825 101.637 227.35 102.425 228.663 102.162C239.338 98.5748 247.125 88.5123 247.125 76.5248C247.037 61.6498 234.875 49.5748 220 49.5748Z" fill="black"/>
<path d="M882.837 82.2128L865.512 52.2878H882.488L899.9 82.2128H882.837ZM868.225 84.6628L859.737 99.7128H892.637L901.125 84.6628H868.225ZM863.238 55.9628L846.875 84.6628L855.362 99.7128L871.9 71.0128L863.238 55.9628Z" fill="black"/>
<path d="M349.738 67.5373C349.65 67.4498 349.65 67.4498 349.65 67.4498C347.288 78.6498 339.85 84.6873 327.775 84.6873H322.875L320.075 102.8H317.45L317.1 104.725C317.013 105.425 317.625 106.212 318.325 106.212H327.075C328.038 106.212 329 105.512 329.175 104.462L329.263 104.112L330.838 93.6123L330.925 92.9998C331.013 92.0373 331.888 91.2498 333.025 91.2498H334.338C342.825 91.2498 349.475 87.8373 351.4 77.8623C352.363 73.4873 351.838 70.0748 349.738 67.5373Z" fill="black"/>
<path d="M320.511 83.6375L320.424 84.1625C320.511 82.9375 321.649 82.0625 322.786 82.0625H327.686C337.399 82.0625 344.924 78.125 347.286 66.6625C347.374 66.3125 347.374 66.05 347.374 65.7C347.986 61.5 347.374 58.525 345.011 55.9875C344.399 55.2875 343.524 54.675 342.649 54.0625C341.424 53.3625 340.199 52.8375 338.711 52.575C337.749 52.3125 336.524 52.225 335.299 52.05C334.249 51.9625 333.286 51.875 332.149 51.875H315.436C314.211 51.875 313.249 52.75 313.074 53.8L306.074 98.3375C305.986 99.3 306.599 100.087 307.561 100.087H317.886L320.511 83.6375Z" fill="black"/>
<path d="M765 50.875C749.95 50.875 737.875 62.95 737.875 78C737.875 93.05 749.95 105.125 765 105.125C780.05 105.125 792.125 93.05 792.125 78C792.125 62.95 780.05 50.875 765 50.875ZM777.425 89.9875C776.9 90.6875 775.938 90.95 775.062 90.6C768.675 86.6625 760.625 85.7875 751.262 87.8875C750.3 88.15 749.425 87.5375 749.25 86.6625C748.987 85.7 749.6 84.825 750.475 84.5625C760.8 82.2 769.55 83.25 776.9 87.625C777.687 88.2375 777.95 89.2 777.425 89.9875ZM780.75 82.725C780.138 83.6875 778.737 83.95 777.95 83.3375C770.687 78.875 759.575 77.5625 750.912 80.275C749.775 80.625 748.55 80.0125 748.287 78.7875C747.937 77.65 748.55 76.425 749.775 76.1625C759.663 73.1 771.825 74.675 780.225 79.75C781.013 80.3625 781.362 81.5875 780.75 82.725ZM781.012 74.9375C772.262 69.775 757.825 69.25 749.425 71.875C748.2 72.225 746.712 71.525 746.362 70.125C746.012 68.9 746.712 67.4125 748.112 67.0625C757.737 64.2625 773.487 64.7 783.637 70.7375C784.862 71.4375 785.213 73.1 784.6 74.15C783.9 75.2875 782.237 75.6375 781.012 74.9375Z" fill="black"/>
<path d="M656.912 48.7878C642.737 48.7878 630.838 59.8129 629.875 73.8129L644.4 79.8503C645.625 78.9753 647.113 78.6254 648.688 78.6254C648.775 78.6254 649.037 78.6254 649.037 78.6254L655.425 69.0879C655.425 69.0004 655.425 69.0004 655.425 69.0004C655.425 63.3129 659.975 58.7628 665.663 58.7628C671.35 58.7628 675.988 63.3129 675.988 69.0004C675.988 74.6879 671.438 79.2379 665.75 79.2379C665.662 79.2379 665.663 79.2379 665.488 79.2379L656.213 85.8878C656.213 85.9753 656.213 86.1504 656.213 86.2379C656.213 90.4379 652.8 94.0253 648.425 94.0253C644.75 94.0253 641.513 91.3128 640.9 87.9003L630.75 83.4379C633.988 94.8129 644.575 103.3 656.912 103.3C671.875 103.213 684.125 91.0504 684.125 76.0004C684.125 60.9503 671.875 48.7878 656.912 48.7878Z" fill="black"/>
<path d="M646.851 90.0875L643.526 88.775C644.139 90 645.101 91.1375 646.501 91.575C649.301 92.8 652.801 91.4875 654.026 88.5125C654.639 87.025 654.639 85.5375 654.026 84.05C653.414 82.5625 652.276 81.425 650.964 80.8125C649.564 80.2 648.164 80.2875 646.764 80.725L650.176 82.2125C652.276 83.175 653.414 85.625 652.539 87.725C651.576 89.9125 649.126 90.875 646.851 90.0875Z" fill="black"/>
<path d="M672.749 69.0005C672.749 65.3255 669.687 62.088 665.837 62.088C662.162 62.088 658.924 65.1505 658.924 69.0005C658.924 72.8505 662.162 75.913 665.837 75.913C669.512 75.913 672.749 72.763 672.749 69.0005ZM660.849 69.0005C660.849 66.2005 663.212 63.9255 665.924 63.9255C668.724 63.9255 670.999 66.288 670.999 69.0005C670.999 71.8005 668.637 74.0755 665.924 74.0755C663.124 74.163 660.849 71.8005 660.849 69.0005Z" fill="black"/>
<path d="M571.087 64.3875L574.413 60.1875C575.375 59.05 575.638 58.175 575.725 57.7375C573.1 59.3125 570.65 59.8375 569.075 59.8375H568.462L568.113 59.4875C566.013 57.65 563.387 56.6875 560.587 56.6875C554.462 56.6875 549.65 61.7625 549.65 67.625C549.65 67.975 549.65 68.5 549.738 68.85L550 70.6L548.162 70.5125C536.962 70.1625 527.775 60.5375 526.288 58.875C523.838 63.25 525.238 67.45 526.725 70.075L529.7 74.975L524.975 72.35C525.063 76.025 526.462 78.9125 529.175 81.0125L531.537 82.7625L529.175 83.725C530.662 88.1875 533.988 90.025 536.438 90.725L539.675 91.6L536.613 93.7C531.713 97.2 525.587 96.9375 522.875 96.675C528.388 100.525 534.95 101.4 539.5 101.4C542.913 101.4 545.45 101.05 546.062 100.788C570.562 95.0125 571.7 73.1375 571.7 68.7625V68.15L572.225 67.8C575.2 65 576.425 63.5125 577.125 62.6375C576.862 62.725 576.513 62.9 576.163 62.9875L571.087 64.3875Z" fill="black"/>
<path d="M1008.99 62.9623C1008.38 60.5998 1006.54 58.7623 1004.18 58.1498C999.975 57.0123 983 57.0123 983 57.0123C983 57.0123 966.025 57.0123 961.825 58.1498C959.463 58.7623 957.625 60.5998 957.012 62.9623C955.875 67.2498 955.875 75.9998 955.875 75.9998C955.875 75.9998 955.875 84.8373 957.012 89.0373C957.625 91.3998 959.463 93.2373 961.825 93.8498C966.025 94.9873 983 94.9873 983 94.9873C983 94.9873 999.975 94.9873 1004.18 93.8498C1006.54 93.2373 1008.38 91.3998 1008.99 89.0373C1010.13 84.8373 1010.12 75.9998 1010.12 75.9998C1010.12 75.9998 1010.13 67.2498 1008.99 62.9623ZM977.575 84.1373V67.8623L991.663 75.9998L977.575 84.1373Z" fill="black"/>
</svg>
