<svg width="48" height="44" viewBox="0 0 48 44" fill="none" xmlns="http://www.w3.org/2000/svg">
<path d="M46.9688 40.5156L34.0781 30.0469C39.3906 22.7813 38.8438 12.3906 32.2031 5.82813C28.6875 2.3125 24 0.359375 19 0.359375C14 0.359375 9.3125 2.3125 5.79688 5.82813C-1.46875 13.0938 -1.46875 24.9688 5.79688 32.2344C9.3125 35.75 14 37.7031 19 37.7031C23.7656 37.7031 28.2188 35.9063 31.7344 32.7031L44.7812 43.25C45.0938 43.4844 45.4844 43.6406 45.875 43.6406C46.4219 43.6406 46.8906 43.4063 47.2031 43.0156C47.8281 42.2344 47.75 41.1406 46.9688 40.5156ZM19 34.1875C14.9375 34.1875 11.1875 32.625 8.29688 29.7344C2.35938 23.7969 2.35938 14.1875 8.29688 8.32813C11.1875 5.4375 14.9375 3.875 19 3.875C23.0625 3.875 26.8125 5.4375 29.7031 8.32813C35.6406 14.2656 35.6406 23.875 29.7031 29.7344C26.8906 32.625 23.0625 34.1875 19 34.1875Z" fill="black"/>
</svg>
