<svg width="24" height="24" viewBox="0 0 24 24" fill="none" xmlns="http://www.w3.org/2000/svg">
<path d="M17.0625 3.52495H16.5V3.14995C16.5 2.28745 15.825 1.61245 15 1.61245H12.8625V1.49995C12.8625 1.04995 12.4875 0.637451 12 0.637451C11.55 0.637451 11.1375 1.01245 11.1375 1.49995V1.61245H8.99995C8.17495 1.61245 7.49995 2.28745 7.49995 3.14995V3.52495H6.93745C5.73745 3.52495 4.76245 4.53745 4.76245 5.73745V21.1125C4.76245 22.35 5.73745 23.325 6.93745 23.325H17.1C18.3 23.325 19.275 22.3125 19.275 21.1125V5.73745C19.2375 4.49995 18.2625 3.52495 17.0625 3.52495ZM9.18745 3.29995H14.8125V4.34995V5.39995H9.18745V3.29995ZM17.55 21.1125C17.55 21.4125 17.325 21.6375 17.0625 21.6375H6.93745C6.67495 21.6375 6.44995 21.4125 6.44995 21.1125V5.73745C6.44995 5.43745 6.67495 5.21245 6.93745 5.21245H7.49995V5.58745C7.49995 6.44995 8.17495 7.12495 8.99995 7.12495H15C15.825 7.12495 16.5 6.44995 16.5 5.58745V5.21245H17.1C17.3625 5.21245 17.5875 5.43745 17.5875 5.73745V21.1125H17.55Z" fill="black"/>
</svg>
