<svg width="1097" height="814" viewBox="0 0 1097 814" fill="none" xmlns="http://www.w3.org/2000/svg">
<rect x="4.5" y="350.5" width="1088" height="459" fill="black" fill-opacity="0.2" stroke="#152F35" stroke-width="9"/>
<rect x="345" width="407" height="407" fill="#D9D9D9"/>
<g filter="url(#filter0_d_68_70)">
<rect x="201" y="451" width="695" height="171" fill="white"/>
</g>
<path d="M279.433 557L267.273 513.672L273.289 511.752L283.401 550.536L292.937 516.872H300.553L310.025 550.536L320.073 511.944L325.705 513.672L313.609 557H306.057L296.585 523.336L286.985 557H279.433ZM343.182 557.768C338.403 557.768 334.606 556.253 331.79 553.224C329.017 550.152 327.63 545.864 327.63 540.36C327.63 537.032 328.249 534.067 329.486 531.464C330.766 528.819 332.537 526.749 334.798 525.256C337.059 523.72 339.683 522.952 342.67 522.952C345.87 522.952 348.515 523.656 350.606 525.064C352.739 526.429 354.339 528.285 355.406 530.632C356.473 532.979 357.006 535.56 357.006 538.376C357.006 539.869 356.942 541.32 356.814 542.728H333.518C333.902 545.843 334.99 548.275 336.782 550.024C338.574 551.773 340.942 552.648 343.886 552.648C345.806 552.648 347.534 552.456 349.07 552.072C350.606 551.645 352.078 551.112 353.486 550.472L354.83 555.4C353.294 556.083 351.566 556.637 349.646 557.064C347.726 557.533 345.571 557.768 343.182 557.768ZM333.454 538.056H351.694C351.694 534.813 350.883 532.317 349.262 530.568C347.641 528.819 345.401 527.944 342.542 527.944C340.067 527.944 338.019 528.819 336.398 530.568C334.777 532.275 333.795 534.771 333.454 538.056ZM374.795 557.768C372.832 557.768 371.061 557.405 369.483 556.68C367.904 555.912 366.645 554.696 365.707 553.032C364.811 551.368 364.363 549.213 364.363 546.568V509.64H370.123V545.992C370.123 548.296 370.592 550.003 371.531 551.112C372.512 552.221 373.856 552.776 375.562 552.776C376.373 552.776 377.163 552.691 377.931 552.52C378.741 552.307 379.424 552.072 379.979 551.816L381.387 556.488C380.619 556.829 379.659 557.128 378.507 557.384C377.397 557.64 376.16 557.768 374.795 557.768ZM396.295 557.768C394.332 557.768 392.561 557.405 390.983 556.68C389.404 555.912 388.145 554.696 387.207 553.032C386.311 551.368 385.863 549.213 385.863 546.568V509.64H391.623V545.992C391.623 548.296 392.092 550.003 393.031 551.112C394.012 552.221 395.356 552.776 397.062 552.776C397.873 552.776 398.663 552.691 399.431 552.52C400.241 552.307 400.924 552.072 401.479 551.816L402.887 556.488C402.119 556.829 401.159 557.128 400.007 557.384C398.897 557.64 397.66 557.768 396.295 557.768ZM420.81 557.768C417.653 557.768 414.879 557.043 412.49 555.592C410.143 554.099 408.33 552.051 407.05 549.448C405.77 546.803 405.13 543.773 405.13 540.36C405.13 537.16 405.77 534.237 407.05 531.592C408.373 528.947 410.25 526.856 412.682 525.32C415.114 523.741 417.973 522.952 421.258 522.952C423.135 522.952 424.778 523.123 426.186 523.464C427.637 523.805 429.023 524.296 430.346 524.936L428.618 529.8C427.423 529.203 426.271 528.776 425.162 528.52C424.095 528.221 422.901 528.072 421.578 528.072C418.591 528.072 416.074 529.16 414.026 531.336C412.021 533.469 411.018 536.435 411.018 540.232C411.018 542.536 411.445 544.627 412.298 546.504C413.151 548.381 414.325 549.875 415.818 550.984C417.354 552.093 419.146 552.648 421.194 552.648C422.815 552.648 424.202 552.477 425.354 552.136C426.506 551.752 427.743 551.219 429.066 550.536L430.858 555.4C429.535 556.125 428.042 556.701 426.378 557.128C424.757 557.555 422.901 557.768 420.81 557.768ZM450.949 557.768C447.791 557.768 444.954 557.043 442.437 555.592C439.919 554.099 437.935 552.051 436.485 549.448C435.077 546.803 434.373 543.773 434.373 540.36C434.373 536.776 435.098 533.683 436.549 531.08C437.999 528.477 439.983 526.472 442.501 525.064C445.018 523.656 447.834 522.952 450.949 522.952C454.063 522.952 456.858 523.656 459.333 525.064C461.85 526.472 463.834 528.477 465.285 531.08C466.778 533.64 467.525 536.691 467.525 540.232C467.525 543.773 466.799 546.867 465.349 549.512C463.898 552.115 461.914 554.141 459.397 555.592C456.922 557.043 454.106 557.768 450.949 557.768ZM450.949 552.648C454.319 552.648 456.943 551.517 458.821 549.256C460.698 546.952 461.637 543.987 461.637 540.36C461.637 538.141 461.167 536.115 460.229 534.28C459.29 532.403 458.01 530.909 456.389 529.8C454.81 528.648 452.997 528.072 450.949 528.072C447.578 528.072 444.954 529.181 443.077 531.4C441.199 533.619 440.26 536.563 440.26 540.232C440.26 542.451 440.73 544.52 441.669 546.44C442.607 548.317 443.866 549.832 445.445 550.984C447.066 552.093 448.901 552.648 450.949 552.648ZM475.183 557V523.72H480.751V529.288C481.945 527.496 483.46 526.003 485.295 524.808C487.129 523.571 489.22 522.952 491.567 522.952C494.212 522.952 496.367 523.592 498.031 524.872C499.737 526.152 500.932 527.859 501.615 529.992C502.937 528.029 504.495 526.365 506.287 525C508.121 523.635 510.383 522.952 513.071 522.952C516.697 522.952 519.385 524.104 521.135 526.408C522.927 528.669 523.823 531.635 523.823 535.304V557H518.063V535.752C518.063 533.448 517.529 531.592 516.463 530.184C515.396 528.733 513.924 528.008 512.047 528.008C510.127 528.008 508.335 528.733 506.671 530.184C505.049 531.592 503.62 533.256 502.382 535.176V557H496.623V535.752C496.623 533.448 496.089 531.592 495.023 530.184C493.956 528.733 492.484 528.008 490.607 528.008C488.729 528.008 486.959 528.712 485.295 530.12C483.631 531.485 482.18 533.107 480.943 534.984V557H475.183ZM547.057 557.768C542.278 557.768 538.481 556.253 535.665 553.224C532.892 550.152 531.505 545.864 531.505 540.36C531.505 537.032 532.124 534.067 533.361 531.464C534.641 528.819 536.412 526.749 538.673 525.256C540.934 523.72 543.558 522.952 546.545 522.952C549.745 522.952 552.39 523.656 554.481 525.064C556.614 526.429 558.214 528.285 559.281 530.632C560.348 532.979 560.881 535.56 560.881 538.376C560.881 539.869 560.817 541.32 560.689 542.728H537.393C537.777 545.843 538.865 548.275 540.657 550.024C542.449 551.773 544.817 552.648 547.761 552.648C549.681 552.648 551.409 552.456 552.945 552.072C554.481 551.645 555.953 551.112 557.361 550.472L558.705 555.4C557.169 556.083 555.441 556.637 553.521 557.064C551.601 557.533 549.446 557.768 547.057 557.768ZM537.329 538.056H555.569C555.569 534.813 554.758 532.317 553.137 530.568C551.516 528.819 549.276 527.944 546.417 527.944C543.942 527.944 541.894 528.819 540.273 530.568C538.652 532.275 537.67 534.771 537.329 538.056ZM599.393 557.768C596.193 557.768 593.654 556.723 591.777 554.632C589.942 552.499 589.025 549.469 589.025 545.544V529.928H583.265V524.936H589.153L590.369 514.44H594.785V524.936H604.001V529.928H594.785V545.992C594.785 548.467 595.297 550.195 596.321 551.176C597.388 552.157 598.646 552.648 600.097 552.648C601.164 552.648 602.166 552.477 603.105 552.136C604.086 551.795 604.982 551.389 605.793 550.92L607.393 555.528C606.54 556.04 605.388 556.531 603.937 557C602.486 557.512 600.972 557.768 599.393 557.768ZM625.949 557.768C622.791 557.768 619.954 557.043 617.437 555.592C614.919 554.099 612.935 552.051 611.485 549.448C610.077 546.803 609.373 543.773 609.373 540.36C609.373 536.776 610.098 533.683 611.549 531.08C612.999 528.477 614.983 526.472 617.501 525.064C620.018 523.656 622.834 522.952 625.949 522.952C629.063 522.952 631.858 523.656 634.333 525.064C636.85 526.472 638.834 528.477 640.285 531.08C641.778 533.64 642.525 536.691 642.525 540.232C642.525 543.773 641.799 546.867 640.349 549.512C638.898 552.115 636.914 554.141 634.397 555.592C631.922 557.043 629.106 557.768 625.949 557.768ZM625.949 552.648C629.319 552.648 631.943 551.517 633.821 549.256C635.698 546.952 636.637 543.987 636.637 540.36C636.637 538.141 636.167 536.115 635.229 534.28C634.29 532.403 633.01 530.909 631.389 529.8C629.81 528.648 627.997 528.072 625.949 528.072C622.578 528.072 619.954 529.181 618.077 531.4C616.199 533.619 615.26 536.563 615.26 540.232C615.26 542.451 615.73 544.52 616.669 546.44C617.607 548.317 618.866 549.832 620.445 550.984C622.066 552.093 623.901 552.648 625.949 552.648ZM700.794 557.64L695.802 544.84H675.066L670.074 557.512L664.89 555.4L682.426 512.2H689.082L706.362 555.4L700.794 557.64ZM676.986 539.72H693.818L685.434 518.216L676.986 539.72ZM712.12 557V523.72H717.88V557H712.12ZM715 518.024C713.891 518.024 712.931 517.619 712.12 516.808C711.352 515.997 710.968 515.059 710.968 513.992C710.968 512.755 711.331 511.773 712.056 511.048C712.781 510.323 713.763 509.96 715 509.96C716.109 509.96 717.048 510.365 717.816 511.176C718.627 511.944 719.032 512.883 719.032 513.992C719.032 515.187 718.669 516.168 717.944 516.936C717.219 517.661 716.237 518.024 715 518.024ZM754.872 557.768L749.304 545.608C747.896 542.579 746.125 540.424 743.992 539.144C741.859 537.864 739.128 537.224 735.8 537.224H734.84V557H728.76V512.328C731.021 512.115 733.176 511.965 735.224 511.88C737.315 511.752 739.533 511.688 741.88 511.688C747.341 511.688 751.437 512.797 754.168 515.016C756.941 517.235 758.328 520.093 758.328 523.592C758.328 526.707 757.389 529.224 755.512 531.144C753.677 533.021 751.011 534.429 747.512 535.368C748.664 535.88 749.688 536.499 750.584 537.224C751.48 537.907 752.333 538.845 753.144 540.04C753.997 541.192 754.851 542.707 755.704 544.584L760.568 555.08L754.872 557.768ZM734.84 532.104H741.88C744.952 532.104 747.448 531.421 749.368 530.056C751.288 528.691 752.248 526.728 752.248 524.168C752.248 522.035 751.352 520.285 749.56 518.92C747.768 517.512 745.208 516.808 741.88 516.808C740.429 516.808 739.128 516.829 737.976 516.872C736.824 516.915 735.779 516.979 734.84 517.064V532.104ZM781.636 557.768C778.479 557.768 775.641 557.043 773.124 555.592C770.607 554.099 768.623 552.051 767.172 549.448C765.764 546.803 765.06 543.773 765.06 540.36C765.06 536.776 765.785 533.683 767.236 531.08C768.687 528.477 770.671 526.472 773.188 525.064C775.705 523.656 778.521 522.952 781.636 522.952C784.751 522.952 787.545 523.656 790.02 525.064C792.537 526.472 794.521 528.477 795.972 531.08C797.465 533.64 798.212 536.691 798.212 540.232C798.212 543.773 797.487 546.867 796.036 549.512C794.585 552.115 792.601 554.141 790.084 555.592C787.609 557.043 784.793 557.768 781.636 557.768ZM781.636 552.648C785.007 552.648 787.631 551.517 789.508 549.256C791.385 546.952 792.324 543.987 792.324 540.36C792.324 538.141 791.855 536.115 790.916 534.28C789.977 532.403 788.697 530.909 787.076 529.8C785.497 528.648 783.684 528.072 781.636 528.072C778.265 528.072 775.641 529.181 773.764 531.4C771.887 533.619 770.948 536.563 770.948 540.232C770.948 542.451 771.417 544.52 772.356 546.44C773.295 548.317 774.553 549.832 776.132 550.984C777.753 552.093 779.588 552.648 781.636 552.648ZM814.83 557.768C812.313 557.768 810.03 557.448 807.982 556.808C805.977 556.168 804.313 555.336 802.99 554.312L805.422 549.512C806.531 550.451 807.918 551.24 809.582 551.88C811.289 552.477 813.102 552.776 815.022 552.776C817.411 552.776 819.203 552.392 820.398 551.624C821.635 550.813 822.254 549.789 822.254 548.552C822.254 547.656 822.019 546.867 821.55 546.184C821.123 545.501 820.313 544.84 819.118 544.2C817.923 543.517 816.195 542.792 813.934 542.024C810.819 540.957 808.473 539.699 806.894 538.248C805.358 536.755 804.59 534.707 804.59 532.104C804.59 529.544 805.699 527.389 807.918 525.64C810.179 523.848 813.294 522.952 817.262 522.952C819.395 522.952 821.294 523.187 822.958 523.656C824.622 524.083 826.115 524.637 827.438 525.32L825.838 530.056C824.686 529.373 823.363 528.819 821.87 528.392C820.419 527.965 818.798 527.752 817.006 527.752C814.787 527.752 813.102 528.2 811.95 529.096C810.798 529.992 810.222 530.973 810.222 532.04C810.222 533.064 810.67 533.939 811.566 534.664C812.462 535.389 814.211 536.179 816.814 537.032C821.038 538.44 823.982 539.997 825.646 541.704C827.31 543.411 828.142 545.544 828.142 548.104C828.142 551.091 826.926 553.459 824.494 555.208C822.105 556.915 818.883 557.768 814.83 557.768Z" fill="black"/>
<path d="M279.433 557L267.273 513.672L273.289 511.752L283.401 550.536L292.937 516.872H300.553L310.025 550.536L320.073 511.944L325.705 513.672L313.609 557H306.057L296.585 523.336L286.985 557H279.433ZM343.182 557.768C338.403 557.768 334.606 556.253 331.79 553.224C329.017 550.152 327.63 545.864 327.63 540.36C327.63 537.032 328.249 534.067 329.486 531.464C330.766 528.819 332.537 526.749 334.798 525.256C337.059 523.72 339.683 522.952 342.67 522.952C345.87 522.952 348.515 523.656 350.606 525.064C352.739 526.429 354.339 528.285 355.406 530.632C356.473 532.979 357.006 535.56 357.006 538.376C357.006 539.869 356.942 541.32 356.814 542.728H333.518C333.902 545.843 334.99 548.275 336.782 550.024C338.574 551.773 340.942 552.648 343.886 552.648C345.806 552.648 347.534 552.456 349.07 552.072C350.606 551.645 352.078 551.112 353.486 550.472L354.83 555.4C353.294 556.083 351.566 556.637 349.646 557.064C347.726 557.533 345.571 557.768 343.182 557.768ZM333.454 538.056H351.694C351.694 534.813 350.883 532.317 349.262 530.568C347.641 528.819 345.401 527.944 342.542 527.944C340.067 527.944 338.019 528.819 336.398 530.568C334.777 532.275 333.795 534.771 333.454 538.056ZM374.795 557.768C372.832 557.768 371.061 557.405 369.483 556.68C367.904 555.912 366.645 554.696 365.707 553.032C364.811 551.368 364.363 549.213 364.363 546.568V509.64H370.123V545.992C370.123 548.296 370.592 550.003 371.531 551.112C372.512 552.221 373.856 552.776 375.562 552.776C376.373 552.776 377.163 552.691 377.931 552.52C378.741 552.307 379.424 552.072 379.979 551.816L381.387 556.488C380.619 556.829 379.659 557.128 378.507 557.384C377.397 557.64 376.16 557.768 374.795 557.768ZM396.295 557.768C394.332 557.768 392.561 557.405 390.983 556.68C389.404 555.912 388.145 554.696 387.207 553.032C386.311 551.368 385.863 549.213 385.863 546.568V509.64H391.623V545.992C391.623 548.296 392.092 550.003 393.031 551.112C394.012 552.221 395.356 552.776 397.062 552.776C397.873 552.776 398.663 552.691 399.431 552.52C400.241 552.307 400.924 552.072 401.479 551.816L402.887 556.488C402.119 556.829 401.159 557.128 400.007 557.384C398.897 557.64 397.66 557.768 396.295 557.768ZM420.81 557.768C417.653 557.768 414.879 557.043 412.49 555.592C410.143 554.099 408.33 552.051 407.05 549.448C405.77 546.803 405.13 543.773 405.13 540.36C405.13 537.16 405.77 534.237 407.05 531.592C408.373 528.947 410.25 526.856 412.682 525.32C415.114 523.741 417.973 522.952 421.258 522.952C423.135 522.952 424.778 523.123 426.186 523.464C427.637 523.805 429.023 524.296 430.346 524.936L428.618 529.8C427.423 529.203 426.271 528.776 425.162 528.52C424.095 528.221 422.901 528.072 421.578 528.072C418.591 528.072 416.074 529.16 414.026 531.336C412.021 533.469 411.018 536.435 411.018 540.232C411.018 542.536 411.445 544.627 412.298 546.504C413.151 548.381 414.325 549.875 415.818 550.984C417.354 552.093 419.146 552.648 421.194 552.648C422.815 552.648 424.202 552.477 425.354 552.136C426.506 551.752 427.743 551.219 429.066 550.536L430.858 555.4C429.535 556.125 428.042 556.701 426.378 557.128C424.757 557.555 422.901 557.768 420.81 557.768ZM450.949 557.768C447.791 557.768 444.954 557.043 442.437 555.592C439.919 554.099 437.935 552.051 436.485 549.448C435.077 546.803 434.373 543.773 434.373 540.36C434.373 536.776 435.098 533.683 436.549 531.08C437.999 528.477 439.983 526.472 442.501 525.064C445.018 523.656 447.834 522.952 450.949 522.952C454.063 522.952 456.858 523.656 459.333 525.064C461.85 526.472 463.834 528.477 465.285 531.08C466.778 533.64 467.525 536.691 467.525 540.232C467.525 543.773 466.799 546.867 465.349 549.512C463.898 552.115 461.914 554.141 459.397 555.592C456.922 557.043 454.106 557.768 450.949 557.768ZM450.949 552.648C454.319 552.648 456.943 551.517 458.821 549.256C460.698 546.952 461.637 543.987 461.637 540.36C461.637 538.141 461.167 536.115 460.229 534.28C459.29 532.403 458.01 530.909 456.389 529.8C454.81 528.648 452.997 528.072 450.949 528.072C447.578 528.072 444.954 529.181 443.077 531.4C441.199 533.619 440.26 536.563 440.26 540.232C440.26 542.451 440.73 544.52 441.669 546.44C442.607 548.317 443.866 549.832 445.445 550.984C447.066 552.093 448.901 552.648 450.949 552.648ZM475.183 557V523.72H480.751V529.288C481.945 527.496 483.46 526.003 485.295 524.808C487.129 523.571 489.22 522.952 491.567 522.952C494.212 522.952 496.367 523.592 498.031 524.872C499.737 526.152 500.932 527.859 501.615 529.992C502.937 528.029 504.495 526.365 506.287 525C508.121 523.635 510.383 522.952 513.071 522.952C516.697 522.952 519.385 524.104 521.135 526.408C522.927 528.669 523.823 531.635 523.823 535.304V557H518.063V535.752C518.063 533.448 517.529 531.592 516.463 530.184C515.396 528.733 513.924 528.008 512.047 528.008C510.127 528.008 508.335 528.733 506.671 530.184C505.049 531.592 503.62 533.256 502.382 535.176V557H496.623V535.752C496.623 533.448 496.089 531.592 495.023 530.184C493.956 528.733 492.484 528.008 490.607 528.008C488.729 528.008 486.959 528.712 485.295 530.12C483.631 531.485 482.18 533.107 480.943 534.984V557H475.183ZM547.057 557.768C542.278 557.768 538.481 556.253 535.665 553.224C532.892 550.152 531.505 545.864 531.505 540.36C531.505 537.032 532.124 534.067 533.361 531.464C534.641 528.819 536.412 526.749 538.673 525.256C540.934 523.72 543.558 522.952 546.545 522.952C549.745 522.952 552.39 523.656 554.481 525.064C556.614 526.429 558.214 528.285 559.281 530.632C560.348 532.979 560.881 535.56 560.881 538.376C560.881 539.869 560.817 541.32 560.689 542.728H537.393C537.777 545.843 538.865 548.275 540.657 550.024C542.449 551.773 544.817 552.648 547.761 552.648C549.681 552.648 551.409 552.456 552.945 552.072C554.481 551.645 555.953 551.112 557.361 550.472L558.705 555.4C557.169 556.083 555.441 556.637 553.521 557.064C551.601 557.533 549.446 557.768 547.057 557.768ZM537.329 538.056H555.569C555.569 534.813 554.758 532.317 553.137 530.568C551.516 528.819 549.276 527.944 546.417 527.944C543.942 527.944 541.894 528.819 540.273 530.568C538.652 532.275 537.67 534.771 537.329 538.056ZM599.393 557.768C596.193 557.768 593.654 556.723 591.777 554.632C589.942 552.499 589.025 549.469 589.025 545.544V529.928H583.265V524.936H589.153L590.369 514.44H594.785V524.936H604.001V529.928H594.785V545.992C594.785 548.467 595.297 550.195 596.321 551.176C597.388 552.157 598.646 552.648 600.097 552.648C601.164 552.648 602.166 552.477 603.105 552.136C604.086 551.795 604.982 551.389 605.793 550.92L607.393 555.528C606.54 556.04 605.388 556.531 603.937 557C602.486 557.512 600.972 557.768 599.393 557.768ZM625.949 557.768C622.791 557.768 619.954 557.043 617.437 555.592C614.919 554.099 612.935 552.051 611.485 549.448C610.077 546.803 609.373 543.773 609.373 540.36C609.373 536.776 610.098 533.683 611.549 531.08C612.999 528.477 614.983 526.472 617.501 525.064C620.018 523.656 622.834 522.952 625.949 522.952C629.063 522.952 631.858 523.656 634.333 525.064C636.85 526.472 638.834 528.477 640.285 531.08C641.778 533.64 642.525 536.691 642.525 540.232C642.525 543.773 641.799 546.867 640.349 549.512C638.898 552.115 636.914 554.141 634.397 555.592C631.922 557.043 629.106 557.768 625.949 557.768ZM625.949 552.648C629.319 552.648 631.943 551.517 633.821 549.256C635.698 546.952 636.637 543.987 636.637 540.36C636.637 538.141 636.167 536.115 635.229 534.28C634.29 532.403 633.01 530.909 631.389 529.8C629.81 528.648 627.997 528.072 625.949 528.072C622.578 528.072 619.954 529.181 618.077 531.4C616.199 533.619 615.26 536.563 615.26 540.232C615.26 542.451 615.73 544.52 616.669 546.44C617.607 548.317 618.866 549.832 620.445 550.984C622.066 552.093 623.901 552.648 625.949 552.648ZM700.794 557.64L695.802 544.84H675.066L670.074 557.512L664.89 555.4L682.426 512.2H689.082L706.362 555.4L700.794 557.64ZM676.986 539.72H693.818L685.434 518.216L676.986 539.72ZM712.12 557V523.72H717.88V557H712.12ZM715 518.024C713.891 518.024 712.931 517.619 712.12 516.808C711.352 515.997 710.968 515.059 710.968 513.992C710.968 512.755 711.331 511.773 712.056 511.048C712.781 510.323 713.763 509.96 715 509.96C716.109 509.96 717.048 510.365 717.816 511.176C718.627 511.944 719.032 512.883 719.032 513.992C719.032 515.187 718.669 516.168 717.944 516.936C717.219 517.661 716.237 518.024 715 518.024ZM754.872 557.768L749.304 545.608C747.896 542.579 746.125 540.424 743.992 539.144C741.859 537.864 739.128 537.224 735.8 537.224H734.84V557H728.76V512.328C731.021 512.115 733.176 511.965 735.224 511.88C737.315 511.752 739.533 511.688 741.88 511.688C747.341 511.688 751.437 512.797 754.168 515.016C756.941 517.235 758.328 520.093 758.328 523.592C758.328 526.707 757.389 529.224 755.512 531.144C753.677 533.021 751.011 534.429 747.512 535.368C748.664 535.88 749.688 536.499 750.584 537.224C751.48 537.907 752.333 538.845 753.144 540.04C753.997 541.192 754.851 542.707 755.704 544.584L760.568 555.08L754.872 557.768ZM734.84 532.104H741.88C744.952 532.104 747.448 531.421 749.368 530.056C751.288 528.691 752.248 526.728 752.248 524.168C752.248 522.035 751.352 520.285 749.56 518.92C747.768 517.512 745.208 516.808 741.88 516.808C740.429 516.808 739.128 516.829 737.976 516.872C736.824 516.915 735.779 516.979 734.84 517.064V532.104ZM781.636 557.768C778.479 557.768 775.641 557.043 773.124 555.592C770.607 554.099 768.623 552.051 767.172 549.448C765.764 546.803 765.06 543.773 765.06 540.36C765.06 536.776 765.785 533.683 767.236 531.08C768.687 528.477 770.671 526.472 773.188 525.064C775.705 523.656 778.521 522.952 781.636 522.952C784.751 522.952 787.545 523.656 790.02 525.064C792.537 526.472 794.521 528.477 795.972 531.08C797.465 533.64 798.212 536.691 798.212 540.232C798.212 543.773 797.487 546.867 796.036 549.512C794.585 552.115 792.601 554.141 790.084 555.592C787.609 557.043 784.793 557.768 781.636 557.768ZM781.636 552.648C785.007 552.648 787.631 551.517 789.508 549.256C791.385 546.952 792.324 543.987 792.324 540.36C792.324 538.141 791.855 536.115 790.916 534.28C789.977 532.403 788.697 530.909 787.076 529.8C785.497 528.648 783.684 528.072 781.636 528.072C778.265 528.072 775.641 529.181 773.764 531.4C771.887 533.619 770.948 536.563 770.948 540.232C770.948 542.451 771.417 544.52 772.356 546.44C773.295 548.317 774.553 549.832 776.132 550.984C777.753 552.093 779.588 552.648 781.636 552.648ZM814.83 557.768C812.313 557.768 810.03 557.448 807.982 556.808C805.977 556.168 804.313 555.336 802.99 554.312L805.422 549.512C806.531 550.451 807.918 551.24 809.582 551.88C811.289 552.477 813.102 552.776 815.022 552.776C817.411 552.776 819.203 552.392 820.398 551.624C821.635 550.813 822.254 549.789 822.254 548.552C822.254 547.656 822.019 546.867 821.55 546.184C821.123 545.501 820.313 544.84 819.118 544.2C817.923 543.517 816.195 542.792 813.934 542.024C810.819 540.957 808.473 539.699 806.894 538.248C805.358 536.755 804.59 534.707 804.59 532.104C804.59 529.544 805.699 527.389 807.918 525.64C810.179 523.848 813.294 522.952 817.262 522.952C819.395 522.952 821.294 523.187 822.958 523.656C824.622 524.083 826.115 524.637 827.438 525.32L825.838 530.056C824.686 529.373 823.363 528.819 821.87 528.392C820.419 527.965 818.798 527.752 817.006 527.752C814.787 527.752 813.102 528.2 811.95 529.096C810.798 529.992 810.222 530.973 810.222 532.04C810.222 533.064 810.67 533.939 811.566 534.664C812.462 535.389 814.211 536.179 816.814 537.032C821.038 538.44 823.982 539.997 825.646 541.704C827.31 543.411 828.142 545.544 828.142 548.104C828.142 551.091 826.926 553.459 824.494 555.208C822.105 556.915 818.883 557.768 814.83 557.768Z" fill="#152F35"/>
<defs>
<filter id="filter0_d_68_70" x="192" y="442" width="715" height="191" filterUnits="userSpaceOnUse" color-interpolation-filters="sRGB">
<feFlood flood-opacity="0" result="BackgroundImageFix"/>
<feColorMatrix in="SourceAlpha" type="matrix" values="0 0 0 0 0 0 0 0 0 0 0 0 0 0 0 0 0 0 127 0" result="hardAlpha"/>
<feMorphology radius="10" operator="dilate" in="SourceAlpha" result="effect1_dropShadow_68_70"/>
<feOffset dx="1" dy="1"/>
<feComposite in2="hardAlpha" operator="out"/>
<feColorMatrix type="matrix" values="0 0 0 0 0.117647 0 0 0 0 0.117647 0 0 0 0 0.117647 0 0 0 1 0"/>
<feBlend mode="normal" in2="BackgroundImageFix" result="effect1_dropShadow_68_70"/>
<feBlend mode="normal" in="SourceGraphic" in2="effect1_dropShadow_68_70" result="shape"/>
</filter>
</defs>
</svg>
