<svg width="1358" height="867" viewBox="0 0 1358 867" fill="none" xmlns="http://www.w3.org/2000/svg">
<path d="M10.5889 47.5H1347.41C1352.11 47.5 1355.91 51.3056 1355.91 56V775.68C1355.91 780.374 1352.11 784.18 1347.41 784.18H10.5889C5.89446 784.18 2.08887 780.374 2.08887 775.68V56C2.08887 51.3056 5.89444 47.5 10.5889 47.5Z" fill="black" fill-opacity="0.49" stroke="black" stroke-width="3"/>
<g filter="url(#filter0_d_78_126)">
<rect x="237" y="9" width="883" height="227" rx="10" fill="white"/>
</g>
<path d="M446.506 98.64C443.466 98.64 440.799 98.56 438.506 98.4C436.266 98.24 434.026 98.0533 431.786 97.84V42.16C434.293 41.8933 436.746 41.7067 439.146 41.6C441.546 41.44 444.293 41.36 447.386 41.36C452.186 41.36 456.319 42.1067 459.786 43.6C463.306 45.0933 466.186 47.1467 468.426 49.76C470.719 52.3733 472.399 55.4133 473.466 58.88C474.586 62.2933 475.146 65.9733 475.146 69.92C475.146 73.8133 474.586 77.4933 473.466 80.96C472.346 84.4267 470.613 87.4933 468.266 90.16C465.973 92.7733 463.013 94.8533 459.386 96.4C455.813 97.8933 451.519 98.64 446.506 98.64ZM446.746 92C451.546 92 455.466 91.0667 458.506 89.2C461.546 87.3333 463.786 84.7467 465.226 81.44C466.666 78.08 467.386 74.24 467.386 69.92C467.386 66.08 466.666 62.48 465.226 59.12C463.786 55.76 461.573 53.0667 458.586 51.04C455.599 48.96 451.786 47.92 447.146 47.92C445.599 47.92 444.186 47.9733 442.906 48.08C441.626 48.1333 440.453 48.2133 439.386 48.32V91.6C440.506 91.76 441.679 91.8667 442.906 91.92C444.133 91.9733 445.413 92 446.746 92ZM502.157 98.96C496.184 98.96 491.437 97.0667 487.917 93.28C484.451 89.44 482.717 84.08 482.717 77.2C482.717 73.04 483.491 69.3333 485.037 66.08C486.637 62.7733 488.851 60.1867 491.677 58.32C494.504 56.4 497.784 55.44 501.517 55.44C505.517 55.44 508.824 56.32 511.437 58.08C514.104 59.7867 516.104 62.1067 517.437 65.04C518.771 67.9733 519.437 71.2 519.437 74.72C519.437 76.5867 519.357 78.4 519.197 80.16H490.077C490.557 84.0533 491.917 87.0933 494.157 89.28C496.397 91.4667 499.357 92.56 503.037 92.56C505.437 92.56 507.597 92.32 509.517 91.84C511.437 91.3067 513.277 90.64 515.037 89.84L516.717 96C514.797 96.8533 512.637 97.5467 510.237 98.08C507.837 98.6667 505.144 98.96 502.157 98.96ZM489.997 74.32H512.797C512.797 70.2667 511.784 67.1467 509.757 64.96C507.731 62.7733 504.931 61.68 501.357 61.68C498.264 61.68 495.704 62.7733 493.677 64.96C491.651 67.0933 490.424 70.2133 489.997 74.32ZM540.153 98L523.433 58.32L529.993 55.6L544.153 89.84L558.313 55.6L564.473 58.32L547.673 98H540.153ZM586.767 98.96C580.793 98.96 576.047 97.0667 572.527 93.28C569.06 89.44 567.327 84.08 567.327 77.2C567.327 73.04 568.1 69.3333 569.647 66.08C571.247 62.7733 573.46 60.1867 576.287 58.32C579.113 56.4 582.393 55.44 586.127 55.44C590.127 55.44 593.433 56.32 596.047 58.08C598.713 59.7867 600.713 62.1067 602.047 65.04C603.38 67.9733 604.047 71.2 604.047 74.72C604.047 76.5867 603.967 78.4 603.807 80.16H574.687C575.167 84.0533 576.527 87.0933 578.767 89.28C581.007 91.4667 583.967 92.56 587.647 92.56C590.047 92.56 592.207 92.32 594.127 91.84C596.047 91.3067 597.887 90.64 599.647 89.84L601.327 96C599.407 96.8533 597.247 97.5467 594.847 98.08C592.447 98.6667 589.753 98.96 586.767 98.96ZM574.607 74.32H597.407C597.407 70.2667 596.393 67.1467 594.367 64.96C592.34 62.7733 589.54 61.68 585.967 61.68C582.873 61.68 580.313 62.7733 578.287 64.96C576.26 67.0933 575.033 70.2133 574.607 74.32ZM626.282 98.96C623.829 98.96 621.616 98.5067 619.642 97.6C617.669 96.64 616.096 95.12 614.922 93.04C613.802 90.96 613.242 88.2667 613.242 84.96V38.8H620.442V84.24C620.442 87.12 621.029 89.2533 622.202 90.64C623.429 92.0267 625.109 92.72 627.242 92.72C628.256 92.72 629.242 92.6133 630.202 92.4C631.216 92.1333 632.069 91.84 632.762 91.52L634.522 97.36C633.562 97.7867 632.362 98.16 630.922 98.48C629.536 98.8 627.989 98.96 626.282 98.96ZM657.647 98.96C653.7 98.96 650.153 98.0533 647.007 96.24C643.86 94.3733 641.38 91.8133 639.567 88.56C637.807 85.2533 636.927 81.4667 636.927 77.2C636.927 72.72 637.833 68.8533 639.647 65.6C641.46 62.3467 643.94 59.84 647.087 58.08C650.233 56.32 653.753 55.44 657.647 55.44C661.54 55.44 665.033 56.32 668.127 58.08C671.273 59.84 673.753 62.3467 675.567 65.6C677.433 68.8 678.367 72.6133 678.367 77.04C678.367 81.4667 677.46 85.3333 675.647 88.64C673.833 91.8933 671.353 94.4267 668.207 96.24C665.113 98.0533 661.593 98.96 657.647 98.96ZM657.647 92.56C661.86 92.56 665.14 91.1467 667.487 88.32C669.833 85.44 671.007 81.7333 671.007 77.2C671.007 74.4267 670.42 71.8933 669.247 69.6C668.073 67.2533 666.473 65.3867 664.447 64C662.473 62.56 660.207 61.84 657.647 61.84C653.433 61.84 650.153 63.2267 647.807 66C645.46 68.7733 644.287 72.4533 644.287 77.04C644.287 79.8133 644.873 82.4 646.047 84.8C647.22 87.1467 648.793 89.04 650.767 90.48C652.793 91.8667 655.087 92.56 657.647 92.56ZM687.897 115.6V67.04C687.897 65.2267 687.443 63.9467 686.537 63.2C685.683 62.4 684.563 62 683.177 62L684.697 56.4C689.603 56.4 692.67 58.3467 693.897 62.24C694.43 61.44 695.283 60.5067 696.457 59.44C697.683 58.3733 699.177 57.44 700.937 56.64C702.75 55.84 704.803 55.44 707.097 55.44C710.297 55.44 713.283 56.2933 716.057 58C718.883 59.6533 721.15 62.08 722.857 65.28C724.563 68.4267 725.417 72.2667 725.417 76.8C725.417 81.2267 724.563 85.12 722.857 88.48C721.15 91.7867 718.91 94.3733 716.137 96.24C713.417 98.0533 710.457 98.96 707.257 98.96C704.803 98.96 702.51 98.48 700.377 97.52C698.243 96.5067 696.483 95.36 695.097 94.08V115.6H687.897ZM705.817 92.56C709.443 92.56 712.377 91.1467 714.617 88.32C716.91 85.44 718.057 81.68 718.057 77.04C718.057 73.84 717.47 71.0933 716.297 68.8C715.177 66.5067 713.657 64.7467 711.737 63.52C709.87 62.2933 707.79 61.68 705.497 61.68C703.203 61.68 701.123 62.2667 699.257 63.44C697.443 64.56 696.057 65.7867 695.097 67.12V87.6C696.483 89.04 698.083 90.24 699.897 91.2C701.71 92.1067 703.683 92.56 705.817 92.56ZM752.079 98.96C746.106 98.96 741.359 97.0667 737.839 93.28C734.372 89.44 732.639 84.08 732.639 77.2C732.639 73.04 733.412 69.3333 734.959 66.08C736.559 62.7733 738.772 60.1867 741.599 58.32C744.426 56.4 747.706 55.44 751.439 55.44C755.439 55.44 758.746 56.32 761.359 58.08C764.026 59.7867 766.026 62.1067 767.359 65.04C768.692 67.9733 769.359 71.2 769.359 74.72C769.359 76.5867 769.279 78.4 769.119 80.16H739.999C740.479 84.0533 741.839 87.0933 744.079 89.28C746.319 91.4667 749.279 92.56 752.959 92.56C755.359 92.56 757.519 92.32 759.439 91.84C761.359 91.3067 763.199 90.64 764.959 89.84L766.639 96C764.719 96.8533 762.559 97.5467 760.159 98.08C757.759 98.6667 755.066 98.96 752.079 98.96ZM739.919 74.32H762.719C762.719 70.2667 761.706 67.1467 759.679 64.96C757.652 62.7733 754.852 61.68 751.279 61.68C748.186 61.68 745.626 62.7733 743.599 64.96C741.572 67.0933 740.346 70.2133 739.919 74.32ZM794.715 98.96C791.301 98.96 788.181 98.08 785.355 96.32C782.528 94.56 780.288 92.08 778.635 88.88C776.981 85.6267 776.155 81.8133 776.155 77.44C776.155 73.2267 776.981 69.4667 778.635 66.16C780.341 62.8533 782.581 60.24 785.355 58.32C788.181 56.4 791.275 55.44 794.635 55.44C797.408 55.44 799.781 56 801.755 57.12C803.781 58.24 805.355 59.3867 806.475 60.56V38.8H813.675V87.92C813.675 89.9467 814.155 91.28 815.115 91.92C816.128 92.5067 817.221 92.8 818.395 92.8L816.875 98.4C811.808 98.4 808.715 96.3733 807.595 92.32C806.421 93.9733 804.768 95.4933 802.635 96.88C800.555 98.2667 797.915 98.96 794.715 98.96ZM796.315 92.56C798.288 92.56 800.155 92.1067 801.915 91.2C803.728 90.24 805.248 89.0133 806.475 87.52V66.88C805.461 65.6 804.048 64.4267 802.235 63.36C800.421 62.24 798.421 61.68 796.235 61.68C793.675 61.68 791.435 62.3733 789.515 63.76C787.595 65.1467 786.101 67.0133 785.035 69.36C784.021 71.6533 783.515 74.2667 783.515 77.2C783.515 80.1333 784.075 82.7733 785.195 85.12C786.315 87.4133 787.835 89.2267 789.755 90.56C791.728 91.8933 793.915 92.56 796.315 92.56ZM870.722 98.96C868.322 98.96 866.055 98.5333 863.922 97.68C861.842 96.7733 860.108 95.7333 858.722 94.56V98H852.002V38.8H859.202V60.72C860.268 59.4933 861.815 58.32 863.842 57.2C865.922 56.0267 868.375 55.44 871.202 55.44C874.402 55.44 877.388 56.2933 880.162 58C882.988 59.6533 885.255 62.08 886.962 65.28C888.668 68.4267 889.522 72.2667 889.522 76.8C889.522 80.1067 888.988 83.12 887.922 85.84C886.855 88.56 885.415 90.9067 883.602 92.88C881.842 94.8 879.842 96.2933 877.602 97.36C875.362 98.4267 873.068 98.96 870.722 98.96ZM868.802 92.56C871.415 92.56 873.708 91.92 875.682 90.64C877.708 89.36 879.282 87.5467 880.402 85.2C881.575 82.8533 882.162 80.1333 882.162 77.04C882.162 73.84 881.575 71.0933 880.402 68.8C879.282 66.5067 877.762 64.7467 875.842 63.52C873.975 62.2933 871.895 61.68 869.602 61.68C867.308 61.68 865.228 62.2667 863.362 63.44C861.548 64.56 860.162 65.7867 859.202 67.12V89.36C860.428 90.32 861.868 91.0933 863.522 91.68C865.175 92.2667 866.935 92.56 868.802 92.56ZM898.979 116.56C897.379 116.56 895.966 116.4 894.739 116.08C893.566 115.76 892.632 115.387 891.939 114.96L893.539 108.96C894.179 109.333 894.979 109.653 895.939 109.92C896.899 110.187 897.966 110.32 899.139 110.32C901.379 110.32 903.379 109.6 905.139 108.16C906.899 106.72 908.579 103.893 910.179 99.68L912.019 94.88H908.179L891.939 58.32L898.339 55.44L913.859 90.08L925.939 55.76L932.579 58.32L917.299 100.08C915.752 104.347 914.072 107.68 912.259 110.08C910.446 112.48 908.446 114.16 906.259 115.12C904.072 116.08 901.646 116.56 898.979 116.56ZM382.606 193V137H393.246L408.766 172.44L424.046 137H434.926V193H427.326V146.68L412.366 180.36H404.846L389.806 146.68V193H382.606ZM448.525 193V151.4H455.725V193H448.525ZM452.125 144.28C450.738 144.28 449.538 143.773 448.525 142.76C447.565 141.747 447.085 140.573 447.085 139.24C447.085 137.693 447.538 136.467 448.445 135.56C449.352 134.653 450.578 134.2 452.125 134.2C453.512 134.2 454.685 134.707 455.645 135.72C456.658 136.68 457.165 137.853 457.165 139.24C457.165 140.733 456.712 141.96 455.805 142.92C454.898 143.827 453.672 144.28 452.125 144.28ZM483.805 211.56C481.352 211.56 478.952 211.267 476.605 210.68C474.312 210.093 472.258 209.213 470.445 208.04L473.085 201.8C474.365 202.813 475.858 203.64 477.565 204.28C479.272 204.973 481.352 205.32 483.805 205.32C487.592 205.32 490.552 204.307 492.685 202.28C494.872 200.307 495.965 197.133 495.965 192.76V187.64C494.898 188.92 493.352 190.147 491.325 191.32C489.352 192.44 486.978 193 484.205 193C481.058 193 478.072 192.2 475.245 190.6C472.418 188.947 470.125 186.547 468.365 183.4C466.605 180.253 465.725 176.467 465.725 172.04C465.725 167.88 466.578 164.173 468.285 160.92C470.045 157.667 472.392 155.107 475.325 153.24C478.258 151.373 481.485 150.44 485.005 150.44C487.352 150.44 489.485 150.84 491.405 151.64C493.325 152.44 494.978 153.427 496.365 154.6V151.4H502.925V192.04C502.925 196.627 502.125 200.36 500.525 203.24C498.925 206.12 496.685 208.227 493.805 209.56C490.978 210.893 487.645 211.56 483.805 211.56ZM485.805 186.6C487.938 186.6 489.858 186.12 491.565 185.16C493.272 184.2 494.658 183.08 495.725 181.8V160.04C494.552 159.187 493.138 158.413 491.485 157.72C489.832 157.027 487.912 156.68 485.725 156.68C483.538 156.68 481.485 157.267 479.565 158.44C477.645 159.613 476.072 161.32 474.845 163.56C473.672 165.747 473.085 168.44 473.085 171.64C473.085 174.68 473.672 177.32 474.845 179.56C476.072 181.8 477.645 183.533 479.565 184.76C481.485 185.987 483.565 186.6 485.805 186.6ZM528.922 193.96C526.522 193.96 524.255 193.453 522.122 192.44C519.989 191.427 518.255 189.8 516.922 187.56C515.589 185.267 514.922 182.227 514.922 178.44V151.4H522.122V177.48C522.122 180.733 522.815 183.24 524.202 185C525.589 186.707 527.615 187.56 530.282 187.56C532.469 187.56 534.575 187.133 536.602 186.28C538.682 185.373 540.522 184.173 542.122 182.68V151.4H549.322V182.2C549.322 184.493 549.802 186.013 550.762 186.76C551.775 187.453 552.869 187.8 554.042 187.8L552.522 193.4C547.562 193.4 544.495 191.427 543.322 187.48C541.455 189.4 539.295 190.973 536.842 192.2C534.389 193.373 531.749 193.96 528.922 193.96ZM579.462 193.96C573.489 193.96 568.742 192.067 565.222 188.28C561.755 184.44 560.022 179.08 560.022 172.2C560.022 168.04 560.795 164.333 562.342 161.08C563.942 157.773 566.155 155.187 568.982 153.32C571.809 151.4 575.089 150.44 578.822 150.44C582.822 150.44 586.129 151.32 588.742 153.08C591.409 154.787 593.409 157.107 594.742 160.04C596.075 162.973 596.742 166.2 596.742 169.72C596.742 171.587 596.662 173.4 596.502 175.16H567.382C567.862 179.053 569.222 182.093 571.462 184.28C573.702 186.467 576.662 187.56 580.342 187.56C582.742 187.56 584.902 187.32 586.822 186.84C588.742 186.307 590.582 185.64 592.342 184.84L594.022 191C592.102 191.853 589.942 192.547 587.542 193.08C585.142 193.667 582.449 193.96 579.462 193.96ZM567.302 169.32H590.102C590.102 165.267 589.089 162.147 587.062 159.96C585.035 157.773 582.235 156.68 578.662 156.68C575.569 156.68 573.009 157.773 570.982 159.96C568.955 162.093 567.729 165.213 567.302 169.32ZM618.978 193.96C616.524 193.96 614.311 193.507 612.338 192.6C610.364 191.64 608.791 190.12 607.618 188.04C606.498 185.96 605.938 183.267 605.938 179.96V133.8H613.138V179.24C613.138 182.12 613.724 184.253 614.898 185.64C616.124 187.027 617.804 187.72 619.938 187.72C620.951 187.72 621.938 187.613 622.898 187.4C623.911 187.133 624.764 186.84 625.458 186.52L627.218 192.36C626.258 192.787 625.058 193.16 623.618 193.48C622.231 193.8 620.684 193.96 618.978 193.96ZM648.582 193.96C645.169 193.96 642.049 193.08 639.222 191.32C636.395 189.56 634.155 187.08 632.502 183.88C630.849 180.627 630.022 176.813 630.022 172.44C630.022 168.227 630.849 164.467 632.502 161.16C634.209 157.853 636.449 155.24 639.222 153.32C642.049 151.4 645.142 150.44 648.502 150.44C651.275 150.44 653.649 151 655.622 152.12C657.649 153.24 659.222 154.387 660.342 155.56V133.8H667.542V182.92C667.542 184.947 668.022 186.28 668.982 186.92C669.995 187.507 671.089 187.8 672.262 187.8L670.742 193.4C665.675 193.4 662.582 191.373 661.462 187.32C660.289 188.973 658.635 190.493 656.502 191.88C654.422 193.267 651.782 193.96 648.582 193.96ZM650.182 187.56C652.155 187.56 654.022 187.107 655.782 186.2C657.595 185.24 659.115 184.013 660.342 182.52V161.88C659.329 160.6 657.915 159.427 656.102 158.36C654.289 157.24 652.289 156.68 650.102 156.68C647.542 156.68 645.302 157.373 643.382 158.76C641.462 160.147 639.969 162.013 638.902 164.36C637.889 166.653 637.382 169.267 637.382 172.2C637.382 175.133 637.942 177.773 639.062 180.12C640.182 182.413 641.702 184.227 643.622 185.56C645.595 186.893 647.782 187.56 650.182 187.56ZM697.743 193.96C691.77 193.96 687.023 192.067 683.503 188.28C680.036 184.44 678.303 179.08 678.303 172.2C678.303 168.04 679.076 164.333 680.623 161.08C682.223 157.773 684.436 155.187 687.263 153.32C690.09 151.4 693.37 150.44 697.103 150.44C701.103 150.44 704.41 151.32 707.023 153.08C709.69 154.787 711.69 157.107 713.023 160.04C714.356 162.973 715.023 166.2 715.023 169.72C715.023 171.587 714.943 173.4 714.783 175.16H685.663C686.143 179.053 687.503 182.093 689.743 184.28C691.983 186.467 694.943 187.56 698.623 187.56C701.023 187.56 703.183 187.32 705.103 186.84C707.023 186.307 708.863 185.64 710.623 184.84L712.303 191C710.383 191.853 708.223 192.547 705.823 193.08C703.423 193.667 700.73 193.96 697.743 193.96ZM685.583 169.32H708.383C708.383 165.267 707.37 162.147 705.343 159.96C703.316 157.773 700.516 156.68 696.943 156.68C693.85 156.68 691.29 157.773 689.263 159.96C687.236 162.093 686.01 165.213 685.583 169.32ZM725.419 193V137H733.019V160.92H760.619V137H768.219V193H760.619V167.48H733.019V193H725.419ZM797.726 193.96C794.26 193.96 791.113 193.08 788.286 191.32C785.46 189.56 783.193 187.08 781.486 183.88C779.833 180.627 779.006 176.813 779.006 172.44C779.006 168.28 779.833 164.547 781.486 161.24C783.193 157.933 785.513 155.32 788.446 153.4C791.433 151.427 794.846 150.44 798.686 150.44C801.086 150.44 803.246 150.867 805.166 151.72C807.14 152.52 808.846 153.533 810.286 154.76V151.4H816.846V182.92C816.846 184.947 817.326 186.28 818.286 186.92C819.3 187.507 820.393 187.8 821.566 187.8L820.046 193.4C814.926 193.4 811.833 191.32 810.766 187.16C809.54 188.867 807.86 190.44 805.726 191.88C803.646 193.267 800.98 193.96 797.726 193.96ZM799.326 187.56C801.353 187.56 803.273 187.08 805.086 186.12C806.9 185.107 808.42 183.853 809.646 182.36V160.04C808.206 159.027 806.606 158.227 804.846 157.64C803.14 157 801.326 156.68 799.406 156.68C796.846 156.68 794.58 157.347 792.606 158.68C790.686 159.96 789.166 161.773 788.046 164.12C786.926 166.413 786.366 169.107 786.366 172.2C786.366 175.187 786.926 177.853 788.046 180.2C789.166 182.493 790.713 184.307 792.686 185.64C794.66 186.92 796.873 187.56 799.326 187.56ZM831.181 193V151.4H838.141V160.44C838.835 158.68 839.768 157.053 840.941 155.56C842.115 154.013 843.581 152.787 845.341 151.88C847.101 150.92 849.155 150.44 851.501 150.44C852.301 150.44 853.101 150.493 853.901 150.6C854.701 150.653 855.368 150.76 855.901 150.92L853.741 158.36C852.728 157.933 851.528 157.72 850.141 157.72C848.168 157.72 846.275 158.28 844.461 159.4C842.701 160.52 841.235 162.253 840.061 164.6C838.941 166.947 838.381 169.933 838.381 173.56V193H831.181ZM878.233 193.96C874.286 193.96 870.739 193.053 867.593 191.24C864.446 189.373 861.966 186.813 860.153 183.56C858.393 180.253 857.513 176.467 857.513 172.2C857.513 167.72 858.419 163.853 860.233 160.6C862.046 157.347 864.526 154.84 867.673 153.08C870.819 151.32 874.339 150.44 878.233 150.44C882.126 150.44 885.619 151.32 888.713 153.08C891.859 154.84 894.339 157.347 896.153 160.6C898.019 163.8 898.953 167.613 898.953 172.04C898.953 176.467 898.046 180.333 896.233 183.64C894.419 186.893 891.939 189.427 888.793 191.24C885.699 193.053 882.179 193.96 878.233 193.96ZM878.233 187.56C882.446 187.56 885.726 186.147 888.073 183.32C890.419 180.44 891.593 176.733 891.593 172.2C891.593 169.427 891.006 166.893 889.833 164.6C888.659 162.253 887.059 160.387 885.033 159C883.059 157.56 880.793 156.84 878.233 156.84C874.019 156.84 870.739 158.227 868.393 161C866.046 163.773 864.872 167.453 864.872 172.04C864.872 174.813 865.459 177.4 866.633 179.8C867.806 182.147 869.379 184.04 871.353 185.48C873.379 186.867 875.673 187.56 878.233 187.56ZM925.325 193.96C921.378 193.96 917.912 193.053 914.925 191.24C911.992 189.373 909.725 186.813 908.125 183.56C906.525 180.253 905.725 176.467 905.725 172.2C905.725 168.2 906.525 164.547 908.125 161.24C909.778 157.933 912.125 155.32 915.165 153.4C918.205 151.427 921.778 150.44 925.885 150.44C928.232 150.44 930.285 150.653 932.045 151.08C933.858 151.507 935.592 152.12 937.245 152.92L935.085 159C933.592 158.253 932.152 157.72 930.765 157.4C929.432 157.027 927.938 156.84 926.285 156.84C922.552 156.84 919.405 158.2 916.845 160.92C914.338 163.587 913.085 167.293 913.085 172.04C913.085 174.92 913.618 177.533 914.685 179.88C915.752 182.227 917.218 184.093 919.085 185.48C921.005 186.867 923.245 187.56 925.805 187.56C927.832 187.56 929.565 187.347 931.005 186.92C932.445 186.44 933.992 185.773 935.645 184.92L937.885 191C936.232 191.907 934.365 192.627 932.285 193.16C930.258 193.693 927.938 193.96 925.325 193.96ZM962.118 193.96C956.145 193.96 951.398 192.067 947.878 188.28C944.411 184.44 942.678 179.08 942.678 172.2C942.678 168.04 943.451 164.333 944.998 161.08C946.598 157.773 948.811 155.187 951.638 153.32C954.465 151.4 957.745 150.44 961.478 150.44C965.478 150.44 968.785 151.32 971.398 153.08C974.065 154.787 976.065 157.107 977.398 160.04C978.731 162.973 979.398 166.2 979.398 169.72C979.398 171.587 979.318 173.4 979.158 175.16H950.038C950.518 179.053 951.878 182.093 954.118 184.28C956.358 186.467 959.318 187.56 962.998 187.56C965.398 187.56 967.558 187.32 969.478 186.84C971.398 186.307 973.238 185.64 974.998 184.84L976.678 191C974.758 191.853 972.598 192.547 970.198 193.08C967.798 193.667 965.105 193.96 962.118 193.96ZM949.958 169.32H972.758C972.758 165.267 971.745 162.147 969.718 159.96C967.691 157.773 964.891 156.68 961.318 156.68C958.225 156.68 955.665 157.773 953.638 159.96C951.611 162.093 950.385 165.213 949.958 169.32Z" fill="#152F35" style="mix-blend-mode:overlay"/>
<path d="M1311.76 532.421H653.353C647.002 532.421 641.853 537.57 641.853 543.921V666.51C641.853 672.862 647.002 678.01 653.353 678.01H1311.76C1318.12 678.01 1323.26 672.862 1323.26 666.51V543.921C1323.26 537.57 1318.12 532.421 1311.76 532.421Z" fill="black" fill-opacity="0.49" stroke="black" stroke-width="3"/>
<path d="M760.256 624.646C757.232 624.646 754.544 623.862 752.192 622.294C749.84 620.726 747.992 618.505 746.648 615.63C745.304 612.718 744.632 609.302 744.632 605.382C744.632 601.201 745.341 597.524 746.76 594.35C748.178 591.14 750.213 588.638 752.864 586.846C755.552 585.017 758.781 584.102 762.552 584.102C764.978 584.102 767.144 584.401 769.048 584.998C770.952 585.596 772.744 586.361 774.424 587.294L772.464 591.718C770.896 590.86 769.29 590.15 767.648 589.59C766.042 589.03 764.25 588.75 762.272 588.75C759.92 588.75 757.829 589.385 756 590.654C754.17 591.886 752.714 593.716 751.632 596.142C750.586 598.569 750.064 601.537 750.064 605.046C750.064 608.182 750.549 610.87 751.52 613.11C752.49 615.313 753.834 617.012 755.552 618.206C757.269 619.401 759.248 619.998 761.488 619.998C763.578 619.998 765.426 619.569 767.032 618.71C768.674 617.814 769.962 616.9 770.896 615.966V607.398H762.776V603.198H775.936V623.974H771.232V620.054C769.925 621.212 768.338 622.276 766.472 623.246C764.605 624.18 762.533 624.646 760.256 624.646ZM784.046 623.974V594.854H789.086V623.974H784.046ZM786.566 589.87C785.595 589.87 784.755 589.516 784.046 588.806C783.374 588.097 783.038 587.276 783.038 586.342C783.038 585.26 783.355 584.401 783.99 583.766C784.625 583.132 785.483 582.814 786.566 582.814C787.537 582.814 788.358 583.169 789.03 583.878C789.739 584.55 790.094 585.372 790.094 586.342C790.094 587.388 789.777 588.246 789.142 588.918C788.507 589.553 787.649 589.87 786.566 589.87ZM808.238 624.646C805.438 624.646 803.217 623.732 801.574 621.902C799.969 620.036 799.166 617.385 799.166 613.95V600.286H794.126V595.918H799.278L800.342 586.734H804.206V595.918H812.27V600.286H804.206V614.342C804.206 616.508 804.654 618.02 805.55 618.878C806.483 619.737 807.585 620.166 808.854 620.166C809.787 620.166 810.665 620.017 811.486 619.718C812.345 619.42 813.129 619.065 813.838 618.654L815.238 622.686C814.491 623.134 813.483 623.564 812.214 623.974C810.945 624.422 809.619 624.646 808.238 624.646ZM820.864 623.974V584.774H826.184V601.518H845.504V584.774H850.824V623.974H845.504V606.11H826.184V623.974H820.864ZM869.855 624.646C868.175 624.646 866.588 624.292 865.095 623.582C863.602 622.873 862.388 621.734 861.455 620.166C860.522 618.561 860.055 616.433 860.055 613.782V594.854H865.095V613.11C865.095 615.388 865.58 617.142 866.551 618.374C867.522 619.569 868.94 620.166 870.807 620.166C872.338 620.166 873.812 619.868 875.231 619.27C876.687 618.636 877.975 617.796 879.095 616.75V594.854H884.135V616.414C884.135 618.02 884.471 619.084 885.143 619.606C885.852 620.092 886.618 620.334 887.439 620.334L886.375 624.254C882.903 624.254 880.756 622.873 879.935 620.11C878.628 621.454 877.116 622.556 875.399 623.414C873.682 624.236 871.834 624.646 869.855 624.646ZM907.236 624.646C905.556 624.646 903.969 624.348 902.476 623.75C901.02 623.116 899.807 622.388 898.836 621.566V623.974H894.132V582.534H899.172V597.878C899.919 597.02 901.001 596.198 902.42 595.414C903.876 594.593 905.593 594.182 907.572 594.182C909.812 594.182 911.903 594.78 913.844 595.974C915.823 597.132 917.409 598.83 918.604 601.07C919.799 603.273 920.396 605.961 920.396 609.134C920.396 611.449 920.023 613.558 919.276 615.462C918.529 617.366 917.521 619.009 916.252 620.39C915.02 621.734 913.62 622.78 912.052 623.526C910.484 624.273 908.879 624.646 907.236 624.646ZM905.892 620.166C907.721 620.166 909.327 619.718 910.708 618.822C912.127 617.926 913.228 616.657 914.012 615.014C914.833 613.372 915.244 611.468 915.244 609.302C915.244 607.062 914.833 605.14 914.012 603.534C913.228 601.929 912.164 600.697 910.82 599.838C909.513 598.98 908.057 598.55 906.452 598.55C904.847 598.55 903.391 598.961 902.084 599.782C900.815 600.566 899.844 601.425 899.172 602.358V617.926C900.031 618.598 901.039 619.14 902.196 619.55C903.353 619.961 904.585 620.166 905.892 620.166ZM967.579 624.646L962.707 614.006C961.475 611.356 959.926 609.47 958.059 608.35C956.192 607.23 953.803 606.67 950.891 606.67H950.051V623.974H944.731V584.886C946.71 584.7 948.595 584.569 950.387 584.494C952.216 584.382 954.158 584.326 956.211 584.326C960.99 584.326 964.574 585.297 966.963 587.238C969.39 589.18 970.603 591.681 970.603 594.742C970.603 597.468 969.782 599.67 968.139 601.35C966.534 602.993 964.2 604.225 961.139 605.046C962.147 605.494 963.043 606.036 963.827 606.67C964.611 607.268 965.358 608.089 966.067 609.134C966.814 610.142 967.56 611.468 968.307 613.11L972.563 622.294L967.579 624.646ZM950.051 602.19H956.211C958.899 602.19 961.083 601.593 962.763 600.398C964.443 599.204 965.283 597.486 965.283 595.246C965.283 593.38 964.499 591.849 962.931 590.654C961.363 589.422 959.123 588.806 956.211 588.806C954.942 588.806 953.803 588.825 952.795 588.862C951.787 588.9 950.872 588.956 950.051 589.03V602.19ZM990.382 624.646C986.2 624.646 982.878 623.321 980.414 620.67C977.987 617.982 976.774 614.23 976.774 609.414C976.774 606.502 977.315 603.908 978.398 601.63C979.518 599.316 981.067 597.505 983.046 596.198C985.024 594.854 987.32 594.182 989.934 594.182C992.734 594.182 995.048 594.798 996.878 596.03C998.744 597.225 1000.14 598.849 1001.08 600.902C1002.01 602.956 1002.48 605.214 1002.48 607.678C1002.48 608.985 1002.42 610.254 1002.31 611.486H981.926C982.262 614.212 983.214 616.34 984.782 617.87C986.35 619.401 988.422 620.166 990.998 620.166C992.678 620.166 994.19 619.998 995.534 619.662C996.878 619.289 998.166 618.822 999.398 618.262L1000.57 622.574C999.23 623.172 997.718 623.657 996.038 624.03C994.358 624.441 992.472 624.646 990.382 624.646ZM981.87 607.398H997.83C997.83 604.561 997.12 602.377 995.702 600.846C994.283 599.316 992.323 598.55 989.822 598.55C987.656 598.55 985.864 599.316 984.446 600.846C983.027 602.34 982.168 604.524 981.87 607.398ZM1010.26 636.294V602.302C1010.26 601.033 1009.94 600.137 1009.31 599.614C1008.71 599.054 1007.93 598.774 1006.95 598.774L1008.02 594.854C1011.45 594.854 1013.6 596.217 1014.46 598.942C1014.83 598.382 1015.43 597.729 1016.25 596.982C1017.11 596.236 1018.15 595.582 1019.39 595.022C1020.66 594.462 1022.09 594.182 1023.7 594.182C1025.94 594.182 1028.03 594.78 1029.97 595.974C1031.95 597.132 1033.54 598.83 1034.73 601.07C1035.93 603.273 1036.52 605.961 1036.52 609.134C1036.52 612.233 1035.93 614.958 1034.73 617.31C1033.54 619.625 1031.97 621.436 1030.03 622.742C1028.12 624.012 1026.05 624.646 1023.81 624.646C1022.09 624.646 1020.49 624.31 1018.99 623.638C1017.5 622.929 1016.27 622.126 1015.3 621.23V636.294H1010.26ZM1022.8 620.166C1025.34 620.166 1027.39 619.177 1028.96 617.198C1030.57 615.182 1031.37 612.55 1031.37 609.302C1031.37 607.062 1030.96 605.14 1030.14 603.534C1029.35 601.929 1028.29 600.697 1026.95 599.838C1025.64 598.98 1024.18 598.55 1022.58 598.55C1020.97 598.55 1019.52 598.961 1018.21 599.782C1016.94 600.566 1015.97 601.425 1015.3 602.358V616.694C1016.27 617.702 1017.39 618.542 1018.66 619.214C1019.93 619.849 1021.31 620.166 1022.8 620.166ZM1055.8 624.646C1053.04 624.646 1050.56 624.012 1048.35 622.742C1046.15 621.436 1044.42 619.644 1043.15 617.366C1041.91 615.052 1041.3 612.401 1041.3 609.414C1041.3 606.278 1041.93 603.572 1043.2 601.294C1044.47 599.017 1046.21 597.262 1048.41 596.03C1050.61 594.798 1053.08 594.182 1055.8 594.182C1058.53 594.182 1060.97 594.798 1063.14 596.03C1065.34 597.262 1067.08 599.017 1068.35 601.294C1069.65 603.534 1070.31 606.204 1070.31 609.302C1070.31 612.401 1069.67 615.108 1068.4 617.422C1067.13 619.7 1065.4 621.473 1063.19 622.742C1061.03 624.012 1058.56 624.646 1055.8 624.646ZM1055.8 620.166C1058.75 620.166 1061.05 619.177 1062.69 617.198C1064.33 615.182 1065.15 612.588 1065.15 609.414C1065.15 607.473 1064.74 605.7 1063.92 604.094C1063.1 602.452 1061.98 601.145 1060.56 600.174C1059.18 599.166 1057.59 598.662 1055.8 598.662C1052.85 598.662 1050.56 599.633 1048.91 601.574C1047.27 603.516 1046.45 606.092 1046.45 609.302C1046.45 611.244 1046.86 613.054 1047.68 614.734C1048.5 616.377 1049.6 617.702 1050.99 618.71C1052.4 619.681 1054.01 620.166 1055.8 620.166Z" fill="white" style="mix-blend-mode:overlay"/>
<path d="M760.441 624.583C757.417 624.583 754.729 623.799 752.377 622.231C750.025 620.663 748.177 618.441 746.833 615.567C745.489 612.655 744.817 609.239 744.817 605.319C744.817 601.137 745.527 597.46 746.945 594.287C748.364 591.076 750.399 588.575 753.049 586.783C755.737 584.953 758.967 584.039 762.737 584.039C765.164 584.039 767.329 584.337 769.233 584.935C771.137 585.532 772.929 586.297 774.609 587.231L772.649 591.655C771.081 590.796 769.476 590.087 767.833 589.527C766.228 588.967 764.436 588.687 762.457 588.687C760.105 588.687 758.015 589.321 756.185 590.591C754.356 591.823 752.9 593.652 751.817 596.079C750.772 598.505 750.249 601.473 750.249 604.983C750.249 608.119 750.735 610.807 751.705 613.047C752.676 615.249 754.02 616.948 755.737 618.143C757.455 619.337 759.433 619.935 761.673 619.935C763.764 619.935 765.612 619.505 767.217 618.647C768.86 617.751 770.148 616.836 771.081 615.903V607.335H762.961V603.135H776.121V623.911H771.417V619.991C770.111 621.148 768.524 622.212 766.657 623.183C764.791 624.116 762.719 624.583 760.441 624.583ZM784.232 623.911V594.791H789.272V623.911H784.232ZM786.752 589.807C785.781 589.807 784.941 589.452 784.232 588.743C783.56 588.033 783.224 587.212 783.224 586.279C783.224 585.196 783.541 584.337 784.176 583.703C784.81 583.068 785.669 582.751 786.752 582.751C787.722 582.751 788.544 583.105 789.216 583.815C789.925 584.487 790.28 585.308 790.28 586.279C790.28 587.324 789.962 588.183 789.328 588.855C788.693 589.489 787.834 589.807 786.752 589.807ZM808.424 624.583C805.624 624.583 803.402 623.668 801.76 621.839C800.154 619.972 799.352 617.321 799.352 613.887V600.223H794.312V595.855H799.464L800.528 586.671H804.392V595.855H812.456V600.223H804.392V614.279C804.392 616.444 804.84 617.956 805.736 618.815C806.669 619.673 807.77 620.103 809.04 620.103C809.973 620.103 810.85 619.953 811.672 619.655C812.53 619.356 813.314 619.001 814.024 618.591L815.424 622.623C814.677 623.071 813.669 623.5 812.4 623.911C811.13 624.359 809.805 624.583 808.424 624.583ZM821.05 623.911V584.711H826.37V601.455H845.69V584.711H851.01V623.911H845.69V606.047H826.37V623.911H821.05ZM870.041 624.583C868.361 624.583 866.774 624.228 865.281 623.519C863.787 622.809 862.574 621.671 861.641 620.103C860.707 618.497 860.241 616.369 860.241 613.719V594.791H865.281V613.047C865.281 615.324 865.766 617.079 866.737 618.311C867.707 619.505 869.126 620.103 870.993 620.103C872.523 620.103 873.998 619.804 875.417 619.207C876.873 618.572 878.161 617.732 879.281 616.687V594.791H884.321V616.351C884.321 617.956 884.657 619.02 885.329 619.543C886.038 620.028 886.803 620.271 887.625 620.271L886.561 624.191C883.089 624.191 880.942 622.809 880.121 620.047C878.814 621.391 877.302 622.492 875.585 623.351C873.867 624.172 872.019 624.583 870.041 624.583ZM907.422 624.583C905.742 624.583 904.155 624.284 902.662 623.687C901.206 623.052 899.992 622.324 899.022 621.503V623.911H894.318V582.471H899.358V597.815C900.104 596.956 901.187 596.135 902.606 595.351C904.062 594.529 905.779 594.119 907.758 594.119C909.998 594.119 912.088 594.716 914.03 595.911C916.008 597.068 917.595 598.767 918.79 601.007C919.984 603.209 920.582 605.897 920.582 609.071C920.582 611.385 920.208 613.495 919.462 615.399C918.715 617.303 917.707 618.945 916.438 620.327C915.206 621.671 913.806 622.716 912.238 623.463C910.67 624.209 909.064 624.583 907.422 624.583ZM906.078 620.103C907.907 620.103 909.512 619.655 910.894 618.759C912.312 617.863 913.414 616.593 914.198 614.951C915.019 613.308 915.43 611.404 915.43 609.239C915.43 606.999 915.019 605.076 914.198 603.471C913.414 601.865 912.35 600.633 911.006 599.775C909.699 598.916 908.243 598.487 906.638 598.487C905.032 598.487 903.576 598.897 902.27 599.719C901 600.503 900.03 601.361 899.358 602.295V617.863C900.216 618.535 901.224 619.076 902.382 619.487C903.539 619.897 904.771 620.103 906.078 620.103ZM967.765 624.583L962.893 613.943C961.661 611.292 960.111 609.407 958.245 608.287C956.378 607.167 953.989 606.607 951.077 606.607H950.237V623.911H944.917V584.823C946.895 584.636 948.781 584.505 950.573 584.431C952.402 584.319 954.343 584.263 956.397 584.263C961.175 584.263 964.759 585.233 967.149 587.175C969.575 589.116 970.789 591.617 970.789 594.679C970.789 597.404 969.967 599.607 968.325 601.287C966.719 602.929 964.386 604.161 961.325 604.983C962.333 605.431 963.229 605.972 964.013 606.607C964.797 607.204 965.543 608.025 966.253 609.071C966.999 610.079 967.746 611.404 968.493 613.047L972.749 622.231L967.765 624.583ZM950.237 602.127H956.397C959.085 602.127 961.269 601.529 962.949 600.335C964.629 599.14 965.469 597.423 965.469 595.183C965.469 593.316 964.685 591.785 963.117 590.591C961.549 589.359 959.309 588.743 956.397 588.743C955.127 588.743 953.989 588.761 952.981 588.799C951.973 588.836 951.058 588.892 950.237 588.967V602.127ZM990.567 624.583C986.386 624.583 983.063 623.257 980.599 620.607C978.173 617.919 976.959 614.167 976.959 609.351C976.959 606.439 977.501 603.844 978.583 601.567C979.703 599.252 981.253 597.441 983.231 596.135C985.21 594.791 987.506 594.119 990.119 594.119C992.919 594.119 995.234 594.735 997.063 595.967C998.93 597.161 1000.33 598.785 1001.26 600.839C1002.2 602.892 1002.66 605.151 1002.66 607.615C1002.66 608.921 1002.61 610.191 1002.5 611.423H982.111C982.447 614.148 983.399 616.276 984.967 617.807C986.535 619.337 988.607 620.103 991.183 620.103C992.863 620.103 994.375 619.935 995.719 619.599C997.063 619.225 998.351 618.759 999.583 618.199L1000.76 622.511C999.415 623.108 997.903 623.593 996.223 623.967C994.543 624.377 992.658 624.583 990.567 624.583ZM982.055 607.335H998.015C998.015 604.497 997.306 602.313 995.887 600.783C994.469 599.252 992.509 598.487 990.007 598.487C987.842 598.487 986.05 599.252 984.631 600.783C983.213 602.276 982.354 604.46 982.055 607.335ZM1010.44 636.231V602.239C1010.44 600.969 1010.13 600.073 1009.49 599.551C1008.89 598.991 1008.11 598.711 1007.14 598.711L1008.2 594.791C1011.64 594.791 1013.79 596.153 1014.64 598.879C1015.02 598.319 1015.61 597.665 1016.44 596.919C1017.29 596.172 1018.34 595.519 1019.57 594.959C1020.84 594.399 1022.28 594.119 1023.88 594.119C1026.12 594.119 1028.21 594.716 1030.16 595.911C1032.13 597.068 1033.72 598.767 1034.92 601.007C1036.11 603.209 1036.71 605.897 1036.71 609.071C1036.71 612.169 1036.11 614.895 1034.92 617.247C1033.72 619.561 1032.15 621.372 1030.21 622.679C1028.31 623.948 1026.24 624.583 1024 624.583C1022.28 624.583 1020.67 624.247 1019.18 623.575C1017.69 622.865 1016.45 622.063 1015.48 621.167V636.231H1010.44ZM1022.99 620.103C1025.53 620.103 1027.58 619.113 1029.15 617.135C1030.75 615.119 1031.56 612.487 1031.56 609.239C1031.56 606.999 1031.15 605.076 1030.32 603.471C1029.54 601.865 1028.48 600.633 1027.13 599.775C1025.83 598.916 1024.37 598.487 1022.76 598.487C1021.16 598.487 1019.7 598.897 1018.4 599.719C1017.13 600.503 1016.16 601.361 1015.48 602.295V616.631C1016.45 617.639 1017.57 618.479 1018.84 619.151C1020.11 619.785 1021.49 620.103 1022.99 620.103ZM1055.99 624.583C1053.23 624.583 1050.74 623.948 1048.54 622.679C1046.34 621.372 1044.6 619.58 1043.33 617.303C1042.1 614.988 1041.48 612.337 1041.48 609.351C1041.48 606.215 1042.12 603.508 1043.39 601.231C1044.66 598.953 1046.39 597.199 1048.6 595.967C1050.8 594.735 1053.26 594.119 1055.99 594.119C1058.71 594.119 1061.16 594.735 1063.32 595.967C1065.53 597.199 1067.26 598.953 1068.53 601.231C1069.84 603.471 1070.49 606.14 1070.49 609.239C1070.49 612.337 1069.86 615.044 1068.59 617.359C1067.32 619.636 1065.58 621.409 1063.38 622.679C1061.21 623.948 1058.75 624.583 1055.99 624.583ZM1055.99 620.103C1058.94 620.103 1061.23 619.113 1062.88 617.135C1064.52 615.119 1065.34 612.524 1065.34 609.351C1065.34 607.409 1064.93 605.636 1064.11 604.031C1063.29 602.388 1062.17 601.081 1060.75 600.111C1059.37 599.103 1057.78 598.599 1055.99 598.599C1053.04 598.599 1050.74 599.569 1049.1 601.511C1047.46 603.452 1046.64 606.028 1046.64 609.239C1046.64 611.18 1047.05 612.991 1047.87 614.671C1048.69 616.313 1049.79 617.639 1051.17 618.647C1052.59 619.617 1054.2 620.103 1055.99 620.103Z" fill="white" style="mix-blend-mode:overlay"/>
<g style="mix-blend-mode:soft-light">
<rect x="1127.93" y="533.921" width="193.832" height="142.589" rx="10" fill="white"/>
<rect x="1127.93" y="533.921" width="193.832" height="142.589" rx="10" stroke="black" stroke-width="3" stroke-miterlimit="1.4467" stroke-linejoin="round"/>
</g>
<path d="M1224.85 563.163C1201.18 563.163 1181.68 582.379 1181.68 606.33C1181.68 625.267 1194.07 641.42 1211.34 647.268C1213.57 647.686 1214.27 646.293 1214.27 645.319C1214.27 644.344 1214.27 641.559 1214.13 637.799C1202.15 640.584 1199.64 631.951 1199.64 631.951C1197.69 627.077 1194.77 625.685 1194.77 625.685C1190.87 622.9 1194.91 622.9 1194.91 622.9C1199.23 623.039 1201.59 627.356 1201.59 627.356C1205.35 634.04 1211.76 632.09 1214.13 630.837C1214.54 628.052 1215.66 626.103 1216.91 624.989C1207.44 624.014 1197.28 620.254 1197.28 603.823C1197.28 599.089 1199.09 595.329 1201.73 592.405C1201.32 591.43 1199.78 586.974 1202.15 580.987C1202.15 580.987 1205.91 579.873 1214.13 585.442C1217.61 584.468 1221.23 583.911 1224.99 583.911C1228.75 583.911 1232.51 584.329 1235.85 585.442C1244.06 580.012 1247.68 580.987 1247.68 580.987C1250.05 586.835 1248.66 591.43 1248.1 592.405C1250.89 595.329 1252.56 599.228 1252.56 603.823C1252.56 620.254 1242.39 624.014 1232.92 624.989C1234.46 626.381 1235.85 629.166 1235.85 633.065C1235.85 638.913 1235.71 643.508 1235.71 644.901C1235.71 646.015 1236.54 647.268 1238.63 646.85C1255.62 641.141 1268.01 625.128 1268.01 606.051C1267.88 582.379 1248.52 563.163 1224.85 563.163Z" fill="black"/>
<path d="M1311.76 322.994H653.353C647.002 322.994 641.853 328.143 641.853 334.494V457.083C641.853 463.434 647.002 468.583 653.353 468.583H1311.76C1318.12 468.583 1323.26 463.434 1323.26 457.083V334.494C1323.26 328.143 1318.12 322.994 1311.76 322.994Z" fill="black" fill-opacity="0.49" stroke="black" stroke-width="3"/>
<path d="M822.772 414.483V375.283H846.292V379.875H828.092V391.803H843.772V396.283H828.092V409.891H846.292V414.483H822.772ZM856.075 397.571V392.979H875.115V397.571H856.075ZM887.413 414.483V375.283H894.861L905.725 400.091L916.421 375.283H924.037V414.483H918.717V382.059L908.245 405.635H902.981L892.453 382.059V414.483H887.413ZM944.7 415.155C942.273 415.155 940.071 414.539 938.092 413.307C936.113 412.075 934.527 410.339 933.332 408.099C932.175 405.822 931.596 403.152 931.596 400.091C931.596 397.179 932.175 394.566 933.332 392.251C934.527 389.936 936.151 388.107 938.204 386.763C940.295 385.382 942.684 384.691 945.372 384.691C947.052 384.691 948.564 384.99 949.908 385.587C951.289 386.147 952.484 386.856 953.492 387.715V385.363H958.084V407.427C958.084 408.846 958.42 409.779 959.092 410.227C959.801 410.638 960.567 410.843 961.388 410.843L960.324 414.763C956.74 414.763 954.575 413.307 953.828 410.395C952.969 411.59 951.793 412.691 950.3 413.699C948.844 414.67 946.977 415.155 944.7 415.155ZM945.82 410.675C947.239 410.675 948.583 410.339 949.852 409.667C951.121 408.958 952.185 408.08 953.044 407.035V391.411C952.036 390.702 950.916 390.142 949.684 389.731C948.489 389.283 947.22 389.059 945.876 389.059C944.084 389.059 942.497 389.526 941.116 390.459C939.772 391.355 938.708 392.624 937.924 394.267C937.14 395.872 936.748 397.758 936.748 399.923C936.748 402.014 937.14 403.88 937.924 405.523C938.708 407.128 939.791 408.398 941.172 409.331C942.553 410.227 944.103 410.675 945.82 410.675ZM968.118 414.483V385.363H973.158V414.483H968.118ZM970.638 380.379C969.668 380.379 968.828 380.024 968.118 379.315C967.446 378.606 967.11 377.784 967.11 376.851C967.11 375.768 967.428 374.91 968.062 374.275C968.697 373.64 969.556 373.323 970.638 373.323C971.609 373.323 972.43 373.678 973.102 374.387C973.812 375.059 974.166 375.88 974.166 376.851C974.166 377.896 973.849 378.755 973.214 379.427C972.58 380.062 971.721 380.379 970.638 380.379ZM990.966 415.155C989.249 415.155 987.7 414.838 986.318 414.203C984.937 413.531 983.836 412.467 983.014 411.011C982.23 409.555 981.838 407.67 981.838 405.355V373.043H986.878V404.851C986.878 406.867 987.289 408.36 988.11 409.331C988.969 410.302 990.145 410.787 991.638 410.787C992.348 410.787 993.038 410.712 993.71 410.563C994.42 410.376 995.017 410.171 995.502 409.947L996.734 414.035C996.062 414.334 995.222 414.595 994.214 414.819C993.244 415.043 992.161 415.155 990.966 415.155Z" fill="white" style="mix-blend-mode:overlay"/>
<path d="M822.772 414.483V375.283H846.292V379.875H828.092V391.803H843.772V396.283H828.092V409.891H846.292V414.483H822.772ZM856.075 397.571V392.979H875.115V397.571H856.075ZM887.413 414.483V375.283H894.861L905.725 400.091L916.421 375.283H924.037V414.483H918.717V382.059L908.245 405.635H902.981L892.453 382.059V414.483H887.413ZM944.7 415.155C942.273 415.155 940.071 414.539 938.092 413.307C936.113 412.075 934.527 410.339 933.332 408.099C932.175 405.822 931.596 403.152 931.596 400.091C931.596 397.179 932.175 394.566 933.332 392.251C934.527 389.936 936.151 388.107 938.204 386.763C940.295 385.382 942.684 384.691 945.372 384.691C947.052 384.691 948.564 384.99 949.908 385.587C951.289 386.147 952.484 386.856 953.492 387.715V385.363H958.084V407.427C958.084 408.846 958.42 409.779 959.092 410.227C959.801 410.638 960.567 410.843 961.388 410.843L960.324 414.763C956.74 414.763 954.575 413.307 953.828 410.395C952.969 411.59 951.793 412.691 950.3 413.699C948.844 414.67 946.977 415.155 944.7 415.155ZM945.82 410.675C947.239 410.675 948.583 410.339 949.852 409.667C951.121 408.958 952.185 408.08 953.044 407.035V391.411C952.036 390.702 950.916 390.142 949.684 389.731C948.489 389.283 947.22 389.059 945.876 389.059C944.084 389.059 942.497 389.526 941.116 390.459C939.772 391.355 938.708 392.624 937.924 394.267C937.14 395.872 936.748 397.758 936.748 399.923C936.748 402.014 937.14 403.88 937.924 405.523C938.708 407.128 939.791 408.398 941.172 409.331C942.553 410.227 944.103 410.675 945.82 410.675ZM968.118 414.483V385.363H973.158V414.483H968.118ZM970.638 380.379C969.668 380.379 968.828 380.024 968.118 379.315C967.446 378.606 967.11 377.784 967.11 376.851C967.11 375.768 967.428 374.91 968.062 374.275C968.697 373.64 969.556 373.323 970.638 373.323C971.609 373.323 972.43 373.678 973.102 374.387C973.812 375.059 974.166 375.88 974.166 376.851C974.166 377.896 973.849 378.755 973.214 379.427C972.58 380.062 971.721 380.379 970.638 380.379ZM990.966 415.155C989.249 415.155 987.7 414.838 986.318 414.203C984.937 413.531 983.836 412.467 983.014 411.011C982.23 409.555 981.838 407.67 981.838 405.355V373.043H986.878V404.851C986.878 406.867 987.289 408.36 988.11 409.331C988.969 410.302 990.145 410.787 991.638 410.787C992.348 410.787 993.038 410.712 993.71 410.563C994.42 410.376 995.017 410.171 995.502 409.947L996.734 414.035C996.062 414.334 995.222 414.595 994.214 414.819C993.244 415.043 992.161 415.155 990.966 415.155Z" fill="white" style="mix-blend-mode:overlay"/>
<g style="mix-blend-mode:soft-light">
<rect x="1127.93" y="324.494" width="193.832" height="142.589" rx="10" fill="white"/>
<rect x="1127.93" y="324.494" width="193.832" height="142.589" rx="10" stroke="black" stroke-width="3" stroke-miterlimit="1.4467" stroke-linejoin="round"/>
</g>
<path d="M1260.31 364.597H1189.39C1184.37 364.597 1180.08 368.496 1180.08 373.369V418.485C1180.08 423.22 1184.22 427.258 1189.39 427.258H1260.31C1265.33 427.258 1269.61 423.359 1269.61 418.485V373.23C1269.61 368.496 1265.33 364.597 1260.31 364.597ZM1260.31 370.863C1260.45 370.863 1260.6 370.863 1260.75 370.863L1224.85 392.586L1188.95 370.863C1189.1 370.863 1189.24 370.863 1189.39 370.863H1260.31ZM1260.31 420.713H1189.39C1187.91 420.713 1186.73 419.599 1186.73 418.207V376.99L1221.3 397.877C1222.34 398.573 1223.52 398.852 1224.7 398.852C1225.88 398.852 1227.06 398.573 1228.1 397.877L1262.67 376.99V418.346C1262.96 419.739 1261.78 420.713 1260.31 420.713Z" fill="black"/>
<rect x="65" y="351" width="516" height="516" fill="#D9D9D9"/>
<defs>
<filter id="filter0_d_78_126" x="228" y="0" width="903" height="247" filterUnits="userSpaceOnUse" color-interpolation-filters="sRGB">
<feFlood flood-opacity="0" result="BackgroundImageFix"/>
<feColorMatrix in="SourceAlpha" type="matrix" values="0 0 0 0 0 0 0 0 0 0 0 0 0 0 0 0 0 0 127 0" result="hardAlpha"/>
<feMorphology radius="10" operator="dilate" in="SourceAlpha" result="effect1_dropShadow_78_126"/>
<feOffset dx="1" dy="1"/>
<feComposite in2="hardAlpha" operator="out"/>
<feColorMatrix type="matrix" values="0 0 0 0 0.117647 0 0 0 0 0.117647 0 0 0 0 0.117647 0 0 0 1 0"/>
<feBlend mode="normal" in2="BackgroundImageFix" result="effect1_dropShadow_78_126"/>
<feBlend mode="normal" in="SourceGraphic" in2="effect1_dropShadow_78_126" result="shape"/>
</filter>
</defs>
</svg>
