<svg width="1097" height="743" viewBox="0 0 1097 743" fill="none" xmlns="http://www.w3.org/2000/svg">
<path d="M10 333.5H1087C1090.04 333.5 1092.5 335.962 1092.5 339V570.5H4.5V339C4.5 335.962 6.96244 333.5 10 333.5Z" fill="black" fill-opacity="0.2" stroke="#152F35" stroke-width="9"/>
<circle cx="227.5" cy="488.5" r="13" fill="#F9C165" stroke="black" stroke-width="3"/>
<rect x="229.5" y="446.5" width="609" height="84" rx="42" fill="#D9D9D9" stroke="black" stroke-width="3"/>
<path d="M812.969 503.516L800.078 493.047C805.391 485.781 804.844 475.391 798.203 468.828C794.688 465.313 790 463.359 785 463.359C780 463.359 775.313 465.313 771.797 468.828C764.531 476.094 764.531 487.969 771.797 495.234C775.313 498.75 780 500.703 785 500.703C789.766 500.703 794.219 498.906 797.734 495.703L810.781 506.25C811.094 506.484 811.484 506.641 811.875 506.641C812.422 506.641 812.891 506.406 813.203 506.016C813.828 505.234 813.75 504.141 812.969 503.516ZM785 497.188C780.938 497.188 777.188 495.625 774.297 492.734C768.359 486.797 768.359 477.188 774.297 471.328C777.188 468.438 780.938 466.875 785 466.875C789.062 466.875 792.813 468.438 795.703 471.328C801.641 477.266 801.641 486.875 795.703 492.734C792.891 495.625 789.062 497.188 785 497.188Z" fill="black"/>
<path d="M4.5 589.5H1092.5V733C1092.5 736.038 1090.04 738.5 1087 738.5H9.99998C6.96243 738.5 4.5 736.038 4.5 733V589.5Z" fill="black" fill-opacity="0.2" stroke="#152F35" stroke-width="9"/>
<path d="M220 699V688" stroke="black"/>
<circle cx="111" cy="662" r="38.5" fill="#D9D9D9" stroke="black" stroke-width="3"/>
<circle cx="220" cy="662" r="38.5" fill="#D9D9D9" stroke="black" stroke-width="3"/>
<circle cx="329" cy="662" r="38.5" fill="#D9D9D9" stroke="black" stroke-width="3"/>
<circle cx="547" cy="662" r="38.5" fill="#D9D9D9" stroke="black" stroke-width="3"/>
<circle cx="656" cy="662" r="38.5" fill="#D9D9D9" stroke="black" stroke-width="3"/>
<circle cx="765" cy="662" r="38.5" fill="#D9D9D9" stroke="black" stroke-width="3"/>
<circle cx="874" cy="662" r="38.5" fill="#D9D9D9" stroke="black" stroke-width="3"/>
<circle cx="983" cy="662" r="38.5" fill="#D9D9D9" stroke="black" stroke-width="3"/>
<path d="M132.116 677.104C125.466 679.904 118.204 681.304 111.641 681.304C102.016 681.391 92.5662 678.679 84.8662 674.129C84.2537 673.779 83.6412 674.391 84.2537 675.004C91.2537 681.391 100.616 685.241 111.029 685.241C118.466 685.241 127.041 682.879 132.991 678.591C134.041 677.804 133.166 676.666 132.116 677.104Z" fill="black"/>
<path d="M137.979 673.779C137.367 672.904 131.854 672.291 128.354 674.654C127.829 675.004 128.004 675.529 128.441 675.529C130.279 675.266 134.567 674.829 135.354 675.791C136.142 676.754 134.479 680.691 133.866 682.529C133.604 683.054 134.129 683.229 134.566 682.879C137.891 680.166 138.767 674.566 137.979 673.779Z" fill="black"/>
<path d="M113.612 654.5C110.812 654.762 106.963 655.025 104.338 656.25C101.275 657.562 99 660.275 99 664.3C99 669.462 102.237 672.088 106.438 672.088C109.85 672.088 111.863 671.212 114.575 668.5C115.45 669.725 115.8 670.512 117.375 671.825C117.725 671.912 118.25 671.912 118.6 671.737C119.562 670.862 121.4 669.287 122.45 668.5C122.8 668.15 122.8 667.625 122.45 667.275C121.575 666.05 120.612 665.087 120.612 662.725V654.937C120.612 651.7 120.875 648.637 118.425 646.45C116.587 644.613 113.35 644 110.987 644C106.262 644 101.1 645.75 100.05 651.525C99.9625 652.137 100.4 652.487 100.662 652.487L105.387 653.012C105.912 653.012 106.087 652.487 106.262 652.137C106.612 650.125 108.275 649.162 110.2 649.162C111.162 649.162 112.388 649.512 113 650.387C113.613 651.35 113.612 652.837 113.612 653.975V654.5ZM112.65 664.737C111.95 666.05 110.637 666.925 109.325 666.925C107.487 666.925 106.262 665.437 106.262 663.337C106.262 659.137 110.113 658.437 113.525 658.437V659.575C113.613 661.325 113.613 662.987 112.65 664.737Z" fill="black"/>
<path d="M220.125 635C205.25 635 193 647.075 193 662.125C193 674.025 200.787 684.175 211.637 687.85C213.037 688.112 213.475 687.238 213.475 686.625C213.475 686.012 213.475 684.262 213.387 681.9C205.862 683.65 204.287 678.225 204.287 678.225C203.062 675.162 201.225 674.287 201.225 674.287C198.775 672.537 201.312 672.537 201.312 672.537C204.025 672.625 205.512 675.337 205.512 675.337C207.875 679.537 211.9 678.312 213.387 677.525C213.65 675.775 214.35 674.55 215.137 673.85C209.187 673.237 202.8 670.875 202.8 660.55C202.8 657.575 203.937 655.212 205.6 653.375C205.337 652.762 204.375 649.963 205.863 646.2C205.863 646.2 208.225 645.5 213.387 649C215.575 648.387 217.85 648.038 220.212 648.038C222.575 648.038 224.938 648.3 227.038 649C232.2 645.587 234.475 646.2 234.475 646.2C235.963 649.875 235.087 652.762 234.737 653.375C236.487 655.212 237.538 657.662 237.538 660.55C237.538 670.875 231.15 673.237 225.2 673.85C226.163 674.725 227.038 676.475 227.038 678.925C227.038 682.6 226.95 685.487 226.95 686.362C226.95 687.062 227.475 687.85 228.788 687.587C239.463 684 247.25 673.937 247.25 661.95C247.163 647.075 235 635 220.125 635Z" fill="black"/>
<path d="M882.837 667.213L865.512 637.288H882.488L899.9 667.213H882.837ZM868.225 669.663L859.737 684.713H892.637L901.125 669.663H868.225ZM863.238 640.963L846.875 669.663L855.362 684.713L871.9 656.013L863.238 640.963Z" fill="black"/>
<path d="M765.125 635C750.075 635 738 647.075 738 662.125C738 677.175 750.075 689.25 765.125 689.25C780.175 689.25 792.25 677.175 792.25 662.125C792.25 647.075 780.175 635 765.125 635ZM777.55 674.113C777.025 674.813 776.062 675.075 775.188 674.725C768.8 670.788 760.75 669.912 751.387 672.012C750.425 672.275 749.55 671.663 749.375 670.788C749.112 669.825 749.725 668.95 750.6 668.688C760.925 666.325 769.675 667.375 777.025 671.75C777.812 672.362 778.075 673.325 777.55 674.113ZM780.875 666.85C780.263 667.813 778.862 668.075 778.075 667.462C770.812 663 759.7 661.687 751.037 664.4C749.9 664.75 748.675 664.138 748.412 662.913C748.062 661.775 748.675 660.55 749.9 660.287C759.788 657.225 771.95 658.8 780.35 663.875C781.138 664.487 781.487 665.713 780.875 666.85ZM781.137 659.062C772.387 653.9 757.95 653.375 749.55 656C748.325 656.35 746.837 655.65 746.487 654.25C746.137 653.025 746.837 651.538 748.237 651.188C757.862 648.387 773.612 648.825 783.762 654.863C784.987 655.563 785.338 657.225 784.725 658.275C784.025 659.413 782.362 659.763 781.137 659.062Z" fill="black"/>
<path d="M655.913 635C641.803 635 629.958 645.921 629 659.79L643.458 665.77C644.677 664.904 646.158 664.557 647.726 664.557C647.813 664.557 648.074 664.557 648.074 664.557L654.432 655.109C654.432 655.022 654.432 655.022 654.432 655.022C654.432 649.388 658.961 644.881 664.623 644.881C670.284 644.881 674.9 649.388 674.9 655.022C674.9 660.657 670.371 665.164 664.71 665.164C664.623 665.164 664.623 665.164 664.448 665.164L655.216 671.751C655.216 671.838 655.216 672.011 655.216 672.098C655.216 676.258 651.819 679.812 647.465 679.812C643.806 679.812 640.584 677.125 639.974 673.745L629.871 669.324C633.094 680.592 643.632 689 655.913 689C670.806 688.913 683 676.865 683 661.957C683 647.048 670.806 635 655.913 635Z" fill="black"/>
<path d="M646.851 675.087L643.526 673.775C644.139 675 645.101 676.137 646.501 676.575C649.301 677.8 652.801 676.487 654.026 673.512C654.639 672.025 654.639 670.537 654.026 669.05C653.414 667.562 652.276 666.425 650.964 665.812C649.564 665.2 648.164 665.288 646.764 665.725L650.176 667.212C652.276 668.175 653.414 670.625 652.539 672.725C651.576 674.912 649.126 675.875 646.851 675.087Z" fill="black"/>
<path d="M672.749 654.001C672.749 650.326 669.687 647.088 665.837 647.088C662.162 647.088 658.924 650.151 658.924 654.001C658.924 657.851 662.162 660.913 665.837 660.913C669.512 660.913 672.749 657.763 672.749 654.001ZM660.849 654.001C660.849 651.201 663.212 648.926 665.924 648.926C668.724 648.926 670.999 651.288 670.999 654.001C670.999 656.801 668.637 659.076 665.924 659.076C663.124 659.163 660.849 656.801 660.849 654.001Z" fill="black"/>
<path d="M570.212 649.7L573.538 645.5C574.5 644.363 574.763 643.487 574.85 643.05C572.225 644.625 569.775 645.15 568.2 645.15H567.587L567.238 644.8C565.138 642.962 562.512 642 559.712 642C553.587 642 548.775 647.075 548.775 652.938C548.775 653.288 548.775 653.812 548.863 654.162L549.125 655.912L547.287 655.825C536.087 655.475 526.9 645.85 525.413 644.188C522.963 648.562 524.363 652.762 525.85 655.387L528.825 660.287L524.1 657.662C524.188 661.337 525.587 664.225 528.3 666.325L530.662 668.075L528.3 669.038C529.787 673.5 533.113 675.338 535.562 676.038L538.8 676.913L535.738 679.012C530.838 682.512 524.712 682.25 522 681.988C527.513 685.838 534.075 686.712 538.625 686.712C542.038 686.712 544.575 686.363 545.188 686.1C569.688 680.325 570.825 658.45 570.825 654.075V653.463L571.35 653.113C574.325 650.313 575.55 648.825 576.25 647.95C575.987 648.038 575.638 648.212 575.288 648.3L570.212 649.7Z" fill="black"/>
<path d="M1009.11 648.95C1008.5 646.588 1006.66 644.75 1004.3 644.138C1000.1 643 983.125 643 983.125 643C983.125 643 966.15 643 961.95 644.138C959.588 644.75 957.75 646.588 957.137 648.95C956 653.238 956 661.988 956 661.988C956 661.988 956 670.825 957.137 675.025C957.75 677.387 959.588 679.225 961.95 679.837C966.15 680.975 983.125 680.975 983.125 680.975C983.125 680.975 1000.1 680.975 1004.3 679.837C1006.66 679.225 1008.5 677.387 1009.11 675.025C1010.25 670.825 1010.25 661.988 1010.25 661.988C1010.25 661.988 1010.25 653.238 1009.11 648.95ZM977.7 670.125V653.85L991.788 661.988L977.7 670.125Z" fill="black"/>
<circle cx="438" cy="662" r="38.5" fill="#D9D9D9" stroke="black" stroke-width="3"/>
<path d="M439.531 664.879L457.422 653.41V676.156V676.181L457.427 676.205C457.488 676.514 457.397 676.761 457.222 676.937C457.041 677.117 456.756 677.234 456.422 677.234H418.922C418.279 677.234 417.766 676.721 417.766 676.078V653.41L435.657 664.879C436.252 665.303 436.929 665.469 437.594 665.469C438.259 665.469 438.935 665.303 439.531 664.879ZM456.422 645.75H418.922C416.13 645.75 413.75 648.047 413.75 650.922V676.234C413.75 679.026 416.047 681.406 418.922 681.406H456.422C459.214 681.406 461.594 679.109 461.594 676.234V650.844C461.594 648.044 459.211 645.75 456.422 645.75ZM419.54 649.766H455.804L437.672 661.406L419.54 649.766Z" fill="black" stroke="black" stroke-width="0.5"/>
<mask id="mask0_82_491" style="mask-type:luminance" maskUnits="userSpaceOnUse" x="304" y="637" width="50" height="50">
<path d="M354 637H304V687H354V637Z" fill="white"/>
</mask>
<g mask="url(#mask0_82_491)">
<path d="M346.355 645.808C343.118 644.294 339.657 643.193 336.039 642.566C335.595 643.37 335.076 644.45 334.718 645.31C330.872 644.731 327.061 644.731 323.286 645.31C322.928 644.45 322.397 643.37 321.949 642.566C318.327 643.193 314.862 644.298 311.625 645.816C305.097 655.681 303.327 665.301 304.212 674.784C308.542 678.018 312.738 679.982 316.864 681.267C317.882 679.865 318.791 678.375 319.573 676.805C318.083 676.238 316.655 675.54 315.306 674.728C315.664 674.463 316.014 674.186 316.352 673.901C324.58 677.749 333.519 677.749 341.647 673.901C341.99 674.186 342.339 674.463 342.693 674.728C341.341 675.543 339.909 676.242 338.419 676.809C339.201 678.375 340.106 679.87 341.128 681.271C345.258 679.986 349.458 678.022 353.788 674.784C354.826 663.791 352.014 654.259 346.355 645.808ZM320.694 668.952C318.224 668.952 316.199 666.646 316.199 663.839C316.199 661.031 318.181 658.722 320.694 658.722C323.207 658.722 325.232 661.027 325.189 663.839C325.193 666.646 323.207 668.952 320.694 668.952ZM337.306 668.952C334.836 668.952 332.811 666.646 332.811 663.839C332.811 661.031 334.793 658.722 337.306 658.722C339.819 658.722 341.844 661.027 341.801 663.839C341.801 666.646 339.819 668.952 337.306 668.952Z" fill="black"/>
</g>
<rect x="345" width="407" height="407" fill="#D9D9D9"/>
</svg>
