<svg width="715" height="191" viewBox="0 0 715 191" fill="none" xmlns="http://www.w3.org/2000/svg">
<g filter="url(#filter0_d_61_140)">
<rect x="9" y="9" width="695" height="171" fill="white"/>
</g>
<path d="M87.4325 115L75.2725 71.672L81.2885 69.752L91.4005 108.536L100.937 74.872H108.553L118.025 108.536L128.073 69.944L133.705 71.672L121.609 115H114.057L104.585 81.336L94.9845 115H87.4325ZM151.182 115.768C146.403 115.768 142.606 114.253 139.79 111.224C137.017 108.152 135.63 103.864 135.63 98.36C135.63 95.032 136.249 92.0667 137.486 89.464C138.766 86.8187 140.537 84.7493 142.798 83.256C145.059 81.72 147.683 80.952 150.67 80.952C153.87 80.952 156.515 81.656 158.606 83.064C160.739 84.4293 162.339 86.2853 163.406 88.632C164.473 90.9787 165.006 93.56 165.006 96.376C165.006 97.8693 164.942 99.32 164.814 100.728H141.518C141.902 103.843 142.99 106.275 144.782 108.024C146.574 109.773 148.942 110.648 151.886 110.648C153.806 110.648 155.534 110.456 157.07 110.072C158.606 109.645 160.078 109.112 161.486 108.472L162.83 113.4C161.294 114.083 159.566 114.637 157.646 115.064C155.726 115.533 153.571 115.768 151.182 115.768ZM141.454 96.056H159.694C159.694 92.8133 158.883 90.3173 157.262 88.568C155.641 86.8187 153.401 85.944 150.542 85.944C148.067 85.944 146.019 86.8187 144.398 88.568C142.777 90.2747 141.795 92.7707 141.454 96.056ZM182.795 115.768C180.832 115.768 179.061 115.405 177.483 114.68C175.904 113.912 174.645 112.696 173.707 111.032C172.811 109.368 172.363 107.213 172.363 104.568V67.64H178.123V103.992C178.123 106.296 178.592 108.003 179.531 109.112C180.512 110.221 181.856 110.776 183.562 110.776C184.373 110.776 185.163 110.691 185.931 110.52C186.741 110.307 187.424 110.072 187.979 109.816L189.387 114.488C188.619 114.829 187.659 115.128 186.507 115.384C185.397 115.64 184.16 115.768 182.795 115.768ZM204.295 115.768C202.332 115.768 200.561 115.405 198.983 114.68C197.404 113.912 196.145 112.696 195.207 111.032C194.311 109.368 193.863 107.213 193.863 104.568V67.64H199.623V103.992C199.623 106.296 200.092 108.003 201.031 109.112C202.012 110.221 203.356 110.776 205.062 110.776C205.873 110.776 206.663 110.691 207.431 110.52C208.241 110.307 208.924 110.072 209.479 109.816L210.887 114.488C210.119 114.829 209.159 115.128 208.007 115.384C206.897 115.64 205.66 115.768 204.295 115.768ZM228.81 115.768C225.653 115.768 222.879 115.043 220.49 113.592C218.143 112.099 216.33 110.051 215.05 107.448C213.77 104.803 213.13 101.773 213.13 98.36C213.13 95.16 213.77 92.2373 215.05 89.592C216.373 86.9467 218.25 84.856 220.682 83.32C223.114 81.7413 225.973 80.952 229.258 80.952C231.135 80.952 232.778 81.1227 234.186 81.464C235.637 81.8053 237.023 82.296 238.346 82.936L236.618 87.8C235.423 87.2027 234.271 86.776 233.162 86.52C232.095 86.2213 230.901 86.072 229.578 86.072C226.591 86.072 224.074 87.16 222.026 89.336C220.021 91.4693 219.018 94.4347 219.018 98.232C219.018 100.536 219.445 102.627 220.298 104.504C221.151 106.381 222.325 107.875 223.818 108.984C225.354 110.093 227.146 110.648 229.194 110.648C230.815 110.648 232.202 110.477 233.354 110.136C234.506 109.752 235.743 109.219 237.066 108.536L238.858 113.4C237.535 114.125 236.042 114.701 234.378 115.128C232.757 115.555 230.901 115.768 228.81 115.768ZM258.949 115.768C255.791 115.768 252.954 115.043 250.437 113.592C247.919 112.099 245.935 110.051 244.485 107.448C243.077 104.803 242.373 101.773 242.373 98.36C242.373 94.776 243.098 91.6827 244.549 89.08C245.999 86.4773 247.983 84.472 250.501 83.064C253.018 81.656 255.834 80.952 258.949 80.952C262.063 80.952 264.858 81.656 267.333 83.064C269.85 84.472 271.834 86.4773 273.285 89.08C274.778 91.64 275.525 94.6907 275.525 98.232C275.525 101.773 274.799 104.867 273.349 107.512C271.898 110.115 269.914 112.141 267.397 113.592C264.922 115.043 262.106 115.768 258.949 115.768ZM258.949 110.648C262.319 110.648 264.943 109.517 266.821 107.256C268.698 104.952 269.637 101.987 269.637 98.36C269.637 96.1413 269.167 94.1147 268.229 92.28C267.29 90.4027 266.01 88.9093 264.389 87.8C262.81 86.648 260.997 86.072 258.949 86.072C255.578 86.072 252.954 87.1813 251.077 89.4C249.199 91.6187 248.26 94.5627 248.26 98.232C248.26 100.451 248.73 102.52 249.669 104.44C250.607 106.317 251.866 107.832 253.445 108.984C255.066 110.093 256.901 110.648 258.949 110.648ZM283.183 115V81.72H288.751V87.288C289.945 85.496 291.46 84.0027 293.295 82.808C295.129 81.5707 297.22 80.952 299.567 80.952C302.212 80.952 304.367 81.592 306.031 82.872C307.737 84.152 308.932 85.8587 309.615 87.992C310.937 86.0293 312.495 84.3653 314.287 83C316.121 81.6347 318.383 80.952 321.071 80.952C324.697 80.952 327.385 82.104 329.135 84.408C330.927 86.6693 331.823 89.6347 331.823 93.304V115H326.063V93.752C326.063 91.448 325.529 89.592 324.463 88.184C323.396 86.7333 321.924 86.008 320.047 86.008C318.127 86.008 316.335 86.7333 314.671 88.184C313.049 89.592 311.62 91.256 310.382 93.176V115H304.623V93.752C304.623 91.448 304.089 89.592 303.023 88.184C301.956 86.7333 300.484 86.008 298.607 86.008C296.729 86.008 294.959 86.712 293.295 88.12C291.631 89.4853 290.18 91.1067 288.943 92.984V115H283.183ZM355.057 115.768C350.278 115.768 346.481 114.253 343.665 111.224C340.892 108.152 339.505 103.864 339.505 98.36C339.505 95.032 340.124 92.0667 341.361 89.464C342.641 86.8187 344.412 84.7493 346.673 83.256C348.934 81.72 351.558 80.952 354.545 80.952C357.745 80.952 360.39 81.656 362.481 83.064C364.614 84.4293 366.214 86.2853 367.281 88.632C368.348 90.9787 368.881 93.56 368.881 96.376C368.881 97.8693 368.817 99.32 368.689 100.728H345.393C345.777 103.843 346.865 106.275 348.657 108.024C350.449 109.773 352.817 110.648 355.761 110.648C357.681 110.648 359.409 110.456 360.945 110.072C362.481 109.645 363.953 109.112 365.361 108.472L366.705 113.4C365.169 114.083 363.441 114.637 361.521 115.064C359.601 115.533 357.446 115.768 355.057 115.768ZM345.329 96.056H363.569C363.569 92.8133 362.758 90.3173 361.137 88.568C359.516 86.8187 357.276 85.944 354.417 85.944C351.942 85.944 349.894 86.8187 348.273 88.568C346.652 90.2747 345.67 92.7707 345.329 96.056ZM407.393 115.768C404.193 115.768 401.654 114.723 399.777 112.632C397.942 110.499 397.025 107.469 397.025 103.544V87.928H391.265V82.936H397.153L398.369 72.44H402.785V82.936H412.001V87.928H402.785V103.992C402.785 106.467 403.297 108.195 404.321 109.176C405.388 110.157 406.646 110.648 408.097 110.648C409.164 110.648 410.166 110.477 411.105 110.136C412.086 109.795 412.982 109.389 413.793 108.92L415.393 113.528C414.54 114.04 413.388 114.531 411.937 115C410.486 115.512 408.972 115.768 407.393 115.768ZM433.949 115.768C430.791 115.768 427.954 115.043 425.437 113.592C422.919 112.099 420.935 110.051 419.485 107.448C418.077 104.803 417.373 101.773 417.373 98.36C417.373 94.776 418.098 91.6827 419.549 89.08C420.999 86.4773 422.983 84.472 425.501 83.064C428.018 81.656 430.834 80.952 433.949 80.952C437.063 80.952 439.858 81.656 442.333 83.064C444.85 84.472 446.834 86.4773 448.285 89.08C449.778 91.64 450.525 94.6907 450.525 98.232C450.525 101.773 449.799 104.867 448.349 107.512C446.898 110.115 444.914 112.141 442.397 113.592C439.922 115.043 437.106 115.768 433.949 115.768ZM433.949 110.648C437.319 110.648 439.943 109.517 441.821 107.256C443.698 104.952 444.637 101.987 444.637 98.36C444.637 96.1413 444.167 94.1147 443.229 92.28C442.29 90.4027 441.01 88.9093 439.389 87.8C437.81 86.648 435.997 86.072 433.949 86.072C430.578 86.072 427.954 87.1813 426.077 89.4C424.199 91.6187 423.26 94.5627 423.26 98.232C423.26 100.451 423.73 102.52 424.669 104.44C425.607 106.317 426.866 107.832 428.445 108.984C430.066 110.093 431.901 110.648 433.949 110.648ZM508.794 115.64L503.802 102.84H483.066L478.074 115.512L472.89 113.4L490.426 70.2H497.082L514.362 113.4L508.794 115.64ZM484.986 97.72H501.818L493.434 76.216L484.986 97.72ZM520.12 115V81.72H525.88V115H520.12ZM523 76.024C521.891 76.024 520.931 75.6187 520.12 74.808C519.352 73.9973 518.968 73.0587 518.968 71.992C518.968 70.7547 519.331 69.7733 520.056 69.048C520.781 68.3227 521.763 67.96 523 67.96C524.109 67.96 525.048 68.3653 525.816 69.176C526.627 69.944 527.032 70.8827 527.032 71.992C527.032 73.1867 526.669 74.168 525.944 74.936C525.219 75.6613 524.237 76.024 523 76.024ZM562.872 115.768L557.304 103.608C555.896 100.579 554.125 98.424 551.992 97.144C549.859 95.864 547.128 95.224 543.8 95.224H542.84V115H536.76V70.328C539.021 70.1147 541.176 69.9653 543.224 69.88C545.315 69.752 547.533 69.688 549.88 69.688C555.341 69.688 559.437 70.7973 562.168 73.016C564.941 75.2347 566.328 78.0933 566.328 81.592C566.328 84.7067 565.389 87.224 563.512 89.144C561.677 91.0213 559.011 92.4293 555.512 93.368C556.664 93.88 557.688 94.4987 558.584 95.224C559.48 95.9067 560.333 96.8453 561.144 98.04C561.997 99.192 562.851 100.707 563.704 102.584L568.568 113.08L562.872 115.768ZM542.84 90.104H549.88C552.952 90.104 555.448 89.4213 557.368 88.056C559.288 86.6907 560.248 84.728 560.248 82.168C560.248 80.0347 559.352 78.2853 557.56 76.92C555.768 75.512 553.208 74.808 549.88 74.808C548.429 74.808 547.128 74.8293 545.976 74.872C544.824 74.9147 543.779 74.9787 542.84 75.064V90.104ZM589.636 115.768C586.479 115.768 583.641 115.043 581.124 113.592C578.607 112.099 576.623 110.051 575.172 107.448C573.764 104.803 573.06 101.773 573.06 98.36C573.06 94.776 573.785 91.6827 575.236 89.08C576.687 86.4773 578.671 84.472 581.188 83.064C583.705 81.656 586.521 80.952 589.636 80.952C592.751 80.952 595.545 81.656 598.02 83.064C600.537 84.472 602.521 86.4773 603.972 89.08C605.465 91.64 606.212 94.6907 606.212 98.232C606.212 101.773 605.487 104.867 604.036 107.512C602.585 110.115 600.601 112.141 598.084 113.592C595.609 115.043 592.793 115.768 589.636 115.768ZM589.636 110.648C593.007 110.648 595.631 109.517 597.508 107.256C599.385 104.952 600.324 101.987 600.324 98.36C600.324 96.1413 599.855 94.1147 598.916 92.28C597.977 90.4027 596.697 88.9093 595.076 87.8C593.497 86.648 591.684 86.072 589.636 86.072C586.265 86.072 583.641 87.1813 581.764 89.4C579.887 91.6187 578.948 94.5627 578.948 98.232C578.948 100.451 579.417 102.52 580.356 104.44C581.295 106.317 582.553 107.832 584.132 108.984C585.753 110.093 587.588 110.648 589.636 110.648ZM622.83 115.768C620.313 115.768 618.03 115.448 615.982 114.808C613.977 114.168 612.313 113.336 610.99 112.312L613.422 107.512C614.531 108.451 615.918 109.24 617.582 109.88C619.289 110.477 621.102 110.776 623.022 110.776C625.411 110.776 627.203 110.392 628.398 109.624C629.635 108.813 630.254 107.789 630.254 106.552C630.254 105.656 630.019 104.867 629.55 104.184C629.123 103.501 628.313 102.84 627.118 102.2C625.923 101.517 624.195 100.792 621.934 100.024C618.819 98.9573 616.473 97.6987 614.894 96.248C613.358 94.7547 612.59 92.7067 612.59 90.104C612.59 87.544 613.699 85.3893 615.918 83.64C618.179 81.848 621.294 80.952 625.262 80.952C627.395 80.952 629.294 81.1867 630.958 81.656C632.622 82.0827 634.115 82.6373 635.438 83.32L633.838 88.056C632.686 87.3733 631.363 86.8187 629.87 86.392C628.419 85.9653 626.798 85.752 625.006 85.752C622.787 85.752 621.102 86.2 619.95 87.096C618.798 87.992 618.222 88.9733 618.222 90.04C618.222 91.064 618.67 91.9387 619.566 92.664C620.462 93.3893 622.211 94.1787 624.814 95.032C629.038 96.44 631.982 97.9973 633.646 99.704C635.31 101.411 636.142 103.544 636.142 106.104C636.142 109.091 634.926 111.459 632.494 113.208C630.105 114.915 626.883 115.768 622.83 115.768Z" fill="black"/>
<path d="M87.4325 115L75.2725 71.672L81.2885 69.752L91.4005 108.536L100.937 74.872H108.553L118.025 108.536L128.073 69.944L133.705 71.672L121.609 115H114.057L104.585 81.336L94.9845 115H87.4325ZM151.182 115.768C146.403 115.768 142.606 114.253 139.79 111.224C137.017 108.152 135.63 103.864 135.63 98.36C135.63 95.032 136.249 92.0667 137.486 89.464C138.766 86.8187 140.537 84.7493 142.798 83.256C145.059 81.72 147.683 80.952 150.67 80.952C153.87 80.952 156.515 81.656 158.606 83.064C160.739 84.4293 162.339 86.2853 163.406 88.632C164.473 90.9787 165.006 93.56 165.006 96.376C165.006 97.8693 164.942 99.32 164.814 100.728H141.518C141.902 103.843 142.99 106.275 144.782 108.024C146.574 109.773 148.942 110.648 151.886 110.648C153.806 110.648 155.534 110.456 157.07 110.072C158.606 109.645 160.078 109.112 161.486 108.472L162.83 113.4C161.294 114.083 159.566 114.637 157.646 115.064C155.726 115.533 153.571 115.768 151.182 115.768ZM141.454 96.056H159.694C159.694 92.8133 158.883 90.3173 157.262 88.568C155.641 86.8187 153.401 85.944 150.542 85.944C148.067 85.944 146.019 86.8187 144.398 88.568C142.777 90.2747 141.795 92.7707 141.454 96.056ZM182.795 115.768C180.832 115.768 179.061 115.405 177.483 114.68C175.904 113.912 174.645 112.696 173.707 111.032C172.811 109.368 172.363 107.213 172.363 104.568V67.64H178.123V103.992C178.123 106.296 178.592 108.003 179.531 109.112C180.512 110.221 181.856 110.776 183.562 110.776C184.373 110.776 185.163 110.691 185.931 110.52C186.741 110.307 187.424 110.072 187.979 109.816L189.387 114.488C188.619 114.829 187.659 115.128 186.507 115.384C185.397 115.64 184.16 115.768 182.795 115.768ZM204.295 115.768C202.332 115.768 200.561 115.405 198.983 114.68C197.404 113.912 196.145 112.696 195.207 111.032C194.311 109.368 193.863 107.213 193.863 104.568V67.64H199.623V103.992C199.623 106.296 200.092 108.003 201.031 109.112C202.012 110.221 203.356 110.776 205.062 110.776C205.873 110.776 206.663 110.691 207.431 110.52C208.241 110.307 208.924 110.072 209.479 109.816L210.887 114.488C210.119 114.829 209.159 115.128 208.007 115.384C206.897 115.64 205.66 115.768 204.295 115.768ZM228.81 115.768C225.653 115.768 222.879 115.043 220.49 113.592C218.143 112.099 216.33 110.051 215.05 107.448C213.77 104.803 213.13 101.773 213.13 98.36C213.13 95.16 213.77 92.2373 215.05 89.592C216.373 86.9467 218.25 84.856 220.682 83.32C223.114 81.7413 225.973 80.952 229.258 80.952C231.135 80.952 232.778 81.1227 234.186 81.464C235.637 81.8053 237.023 82.296 238.346 82.936L236.618 87.8C235.423 87.2027 234.271 86.776 233.162 86.52C232.095 86.2213 230.901 86.072 229.578 86.072C226.591 86.072 224.074 87.16 222.026 89.336C220.021 91.4693 219.018 94.4347 219.018 98.232C219.018 100.536 219.445 102.627 220.298 104.504C221.151 106.381 222.325 107.875 223.818 108.984C225.354 110.093 227.146 110.648 229.194 110.648C230.815 110.648 232.202 110.477 233.354 110.136C234.506 109.752 235.743 109.219 237.066 108.536L238.858 113.4C237.535 114.125 236.042 114.701 234.378 115.128C232.757 115.555 230.901 115.768 228.81 115.768ZM258.949 115.768C255.791 115.768 252.954 115.043 250.437 113.592C247.919 112.099 245.935 110.051 244.485 107.448C243.077 104.803 242.373 101.773 242.373 98.36C242.373 94.776 243.098 91.6827 244.549 89.08C245.999 86.4773 247.983 84.472 250.501 83.064C253.018 81.656 255.834 80.952 258.949 80.952C262.063 80.952 264.858 81.656 267.333 83.064C269.85 84.472 271.834 86.4773 273.285 89.08C274.778 91.64 275.525 94.6907 275.525 98.232C275.525 101.773 274.799 104.867 273.349 107.512C271.898 110.115 269.914 112.141 267.397 113.592C264.922 115.043 262.106 115.768 258.949 115.768ZM258.949 110.648C262.319 110.648 264.943 109.517 266.821 107.256C268.698 104.952 269.637 101.987 269.637 98.36C269.637 96.1413 269.167 94.1147 268.229 92.28C267.29 90.4027 266.01 88.9093 264.389 87.8C262.81 86.648 260.997 86.072 258.949 86.072C255.578 86.072 252.954 87.1813 251.077 89.4C249.199 91.6187 248.26 94.5627 248.26 98.232C248.26 100.451 248.73 102.52 249.669 104.44C250.607 106.317 251.866 107.832 253.445 108.984C255.066 110.093 256.901 110.648 258.949 110.648ZM283.183 115V81.72H288.751V87.288C289.945 85.496 291.46 84.0027 293.295 82.808C295.129 81.5707 297.22 80.952 299.567 80.952C302.212 80.952 304.367 81.592 306.031 82.872C307.737 84.152 308.932 85.8587 309.615 87.992C310.937 86.0293 312.495 84.3653 314.287 83C316.121 81.6347 318.383 80.952 321.071 80.952C324.697 80.952 327.385 82.104 329.135 84.408C330.927 86.6693 331.823 89.6347 331.823 93.304V115H326.063V93.752C326.063 91.448 325.529 89.592 324.463 88.184C323.396 86.7333 321.924 86.008 320.047 86.008C318.127 86.008 316.335 86.7333 314.671 88.184C313.049 89.592 311.62 91.256 310.382 93.176V115H304.623V93.752C304.623 91.448 304.089 89.592 303.023 88.184C301.956 86.7333 300.484 86.008 298.607 86.008C296.729 86.008 294.959 86.712 293.295 88.12C291.631 89.4853 290.18 91.1067 288.943 92.984V115H283.183ZM355.057 115.768C350.278 115.768 346.481 114.253 343.665 111.224C340.892 108.152 339.505 103.864 339.505 98.36C339.505 95.032 340.124 92.0667 341.361 89.464C342.641 86.8187 344.412 84.7493 346.673 83.256C348.934 81.72 351.558 80.952 354.545 80.952C357.745 80.952 360.39 81.656 362.481 83.064C364.614 84.4293 366.214 86.2853 367.281 88.632C368.348 90.9787 368.881 93.56 368.881 96.376C368.881 97.8693 368.817 99.32 368.689 100.728H345.393C345.777 103.843 346.865 106.275 348.657 108.024C350.449 109.773 352.817 110.648 355.761 110.648C357.681 110.648 359.409 110.456 360.945 110.072C362.481 109.645 363.953 109.112 365.361 108.472L366.705 113.4C365.169 114.083 363.441 114.637 361.521 115.064C359.601 115.533 357.446 115.768 355.057 115.768ZM345.329 96.056H363.569C363.569 92.8133 362.758 90.3173 361.137 88.568C359.516 86.8187 357.276 85.944 354.417 85.944C351.942 85.944 349.894 86.8187 348.273 88.568C346.652 90.2747 345.67 92.7707 345.329 96.056ZM407.393 115.768C404.193 115.768 401.654 114.723 399.777 112.632C397.942 110.499 397.025 107.469 397.025 103.544V87.928H391.265V82.936H397.153L398.369 72.44H402.785V82.936H412.001V87.928H402.785V103.992C402.785 106.467 403.297 108.195 404.321 109.176C405.388 110.157 406.646 110.648 408.097 110.648C409.164 110.648 410.166 110.477 411.105 110.136C412.086 109.795 412.982 109.389 413.793 108.92L415.393 113.528C414.54 114.04 413.388 114.531 411.937 115C410.486 115.512 408.972 115.768 407.393 115.768ZM433.949 115.768C430.791 115.768 427.954 115.043 425.437 113.592C422.919 112.099 420.935 110.051 419.485 107.448C418.077 104.803 417.373 101.773 417.373 98.36C417.373 94.776 418.098 91.6827 419.549 89.08C420.999 86.4773 422.983 84.472 425.501 83.064C428.018 81.656 430.834 80.952 433.949 80.952C437.063 80.952 439.858 81.656 442.333 83.064C444.85 84.472 446.834 86.4773 448.285 89.08C449.778 91.64 450.525 94.6907 450.525 98.232C450.525 101.773 449.799 104.867 448.349 107.512C446.898 110.115 444.914 112.141 442.397 113.592C439.922 115.043 437.106 115.768 433.949 115.768ZM433.949 110.648C437.319 110.648 439.943 109.517 441.821 107.256C443.698 104.952 444.637 101.987 444.637 98.36C444.637 96.1413 444.167 94.1147 443.229 92.28C442.29 90.4027 441.01 88.9093 439.389 87.8C437.81 86.648 435.997 86.072 433.949 86.072C430.578 86.072 427.954 87.1813 426.077 89.4C424.199 91.6187 423.26 94.5627 423.26 98.232C423.26 100.451 423.73 102.52 424.669 104.44C425.607 106.317 426.866 107.832 428.445 108.984C430.066 110.093 431.901 110.648 433.949 110.648ZM508.794 115.64L503.802 102.84H483.066L478.074 115.512L472.89 113.4L490.426 70.2H497.082L514.362 113.4L508.794 115.64ZM484.986 97.72H501.818L493.434 76.216L484.986 97.72ZM520.12 115V81.72H525.88V115H520.12ZM523 76.024C521.891 76.024 520.931 75.6187 520.12 74.808C519.352 73.9973 518.968 73.0587 518.968 71.992C518.968 70.7547 519.331 69.7733 520.056 69.048C520.781 68.3227 521.763 67.96 523 67.96C524.109 67.96 525.048 68.3653 525.816 69.176C526.627 69.944 527.032 70.8827 527.032 71.992C527.032 73.1867 526.669 74.168 525.944 74.936C525.219 75.6613 524.237 76.024 523 76.024ZM562.872 115.768L557.304 103.608C555.896 100.579 554.125 98.424 551.992 97.144C549.859 95.864 547.128 95.224 543.8 95.224H542.84V115H536.76V70.328C539.021 70.1147 541.176 69.9653 543.224 69.88C545.315 69.752 547.533 69.688 549.88 69.688C555.341 69.688 559.437 70.7973 562.168 73.016C564.941 75.2347 566.328 78.0933 566.328 81.592C566.328 84.7067 565.389 87.224 563.512 89.144C561.677 91.0213 559.011 92.4293 555.512 93.368C556.664 93.88 557.688 94.4987 558.584 95.224C559.48 95.9067 560.333 96.8453 561.144 98.04C561.997 99.192 562.851 100.707 563.704 102.584L568.568 113.08L562.872 115.768ZM542.84 90.104H549.88C552.952 90.104 555.448 89.4213 557.368 88.056C559.288 86.6907 560.248 84.728 560.248 82.168C560.248 80.0347 559.352 78.2853 557.56 76.92C555.768 75.512 553.208 74.808 549.88 74.808C548.429 74.808 547.128 74.8293 545.976 74.872C544.824 74.9147 543.779 74.9787 542.84 75.064V90.104ZM589.636 115.768C586.479 115.768 583.641 115.043 581.124 113.592C578.607 112.099 576.623 110.051 575.172 107.448C573.764 104.803 573.06 101.773 573.06 98.36C573.06 94.776 573.785 91.6827 575.236 89.08C576.687 86.4773 578.671 84.472 581.188 83.064C583.705 81.656 586.521 80.952 589.636 80.952C592.751 80.952 595.545 81.656 598.02 83.064C600.537 84.472 602.521 86.4773 603.972 89.08C605.465 91.64 606.212 94.6907 606.212 98.232C606.212 101.773 605.487 104.867 604.036 107.512C602.585 110.115 600.601 112.141 598.084 113.592C595.609 115.043 592.793 115.768 589.636 115.768ZM589.636 110.648C593.007 110.648 595.631 109.517 597.508 107.256C599.385 104.952 600.324 101.987 600.324 98.36C600.324 96.1413 599.855 94.1147 598.916 92.28C597.977 90.4027 596.697 88.9093 595.076 87.8C593.497 86.648 591.684 86.072 589.636 86.072C586.265 86.072 583.641 87.1813 581.764 89.4C579.887 91.6187 578.948 94.5627 578.948 98.232C578.948 100.451 579.417 102.52 580.356 104.44C581.295 106.317 582.553 107.832 584.132 108.984C585.753 110.093 587.588 110.648 589.636 110.648ZM622.83 115.768C620.313 115.768 618.03 115.448 615.982 114.808C613.977 114.168 612.313 113.336 610.99 112.312L613.422 107.512C614.531 108.451 615.918 109.24 617.582 109.88C619.289 110.477 621.102 110.776 623.022 110.776C625.411 110.776 627.203 110.392 628.398 109.624C629.635 108.813 630.254 107.789 630.254 106.552C630.254 105.656 630.019 104.867 629.55 104.184C629.123 103.501 628.313 102.84 627.118 102.2C625.923 101.517 624.195 100.792 621.934 100.024C618.819 98.9573 616.473 97.6987 614.894 96.248C613.358 94.7547 612.59 92.7067 612.59 90.104C612.59 87.544 613.699 85.3893 615.918 83.64C618.179 81.848 621.294 80.952 625.262 80.952C627.395 80.952 629.294 81.1867 630.958 81.656C632.622 82.0827 634.115 82.6373 635.438 83.32L633.838 88.056C632.686 87.3733 631.363 86.8187 629.87 86.392C628.419 85.9653 626.798 85.752 625.006 85.752C622.787 85.752 621.102 86.2 619.95 87.096C618.798 87.992 618.222 88.9733 618.222 90.04C618.222 91.064 618.67 91.9387 619.566 92.664C620.462 93.3893 622.211 94.1787 624.814 95.032C629.038 96.44 631.982 97.9973 633.646 99.704C635.31 101.411 636.142 103.544 636.142 106.104C636.142 109.091 634.926 111.459 632.494 113.208C630.105 114.915 626.883 115.768 622.83 115.768Z" fill="#152F35"/>
<defs>
<filter id="filter0_d_61_140" x="0" y="0" width="715" height="191" filterUnits="userSpaceOnUse" color-interpolation-filters="sRGB">
<feFlood flood-opacity="0" result="BackgroundImageFix"/>
<feColorMatrix in="SourceAlpha" type="matrix" values="0 0 0 0 0 0 0 0 0 0 0 0 0 0 0 0 0 0 127 0" result="hardAlpha"/>
<feMorphology radius="10" operator="dilate" in="SourceAlpha" result="effect1_dropShadow_61_140"/>
<feOffset dx="1" dy="1"/>
<feComposite in2="hardAlpha" operator="out"/>
<feColorMatrix type="matrix" values="0 0 0 0 0.117647 0 0 0 0 0.117647 0 0 0 0 0.117647 0 0 0 1 0"/>
<feBlend mode="normal" in2="BackgroundImageFix" result="effect1_dropShadow_61_140"/>
<feBlend mode="normal" in="SourceGraphic" in2="effect1_dropShadow_61_140" result="shape"/>
</filter>
</defs>
</svg>
